<svg width="500" height="500" viewBox="0 0 500 500" fill="none" xmlns="http://www.w3.org/2000/svg">
<path d="M432.66 73.33L430.26 69.33C410.05 36.07 373.5 16 335 18.42C330.038 18.7265 325.105 19.3949 320.24 20.42C285.24 27.92 254.73 54.42 242.09 88.34C234.66 108.34 232.58 131.27 218.48 147.11C200.13 167.73 168.97 168.37 141.57 167.52C114.17 166.67 83 167.42 64.7 188.12C53.27 201.12 49.63 219.51 50.55 236.87C53 282.87 85.02 323.92 125.74 344.34C166.46 364.76 214.41 366.59 259 357.61C321.42 345 380.8 310.46 416.49 257.07C452.18 203.68 461.21 131 432.66 73.33Z" fill="#F5F5F5"/>
<path d="M65.4399 53.6V286.3H450.8V81.92H169.13L168.78 53.6H65.4399Z" fill="white"/>
<path d="M168.28 85.52L167.92 58.95H263.26V85.52H168.28Z" fill="#F5F5F5"/>
<path d="M357.32 63.89H263.26V85.51H357.32V63.89Z" fill="#EBEBEB"/>
<path d="M357.1 85.52L357.31 66.5H450.8V85.52H357.1Z" fill="#E0E0E0"/>
<path d="M149.25 72.23C149.25 72.38 134.43 72.49 116.16 72.49C97.8899 72.49 83.0599 72.38 83.0599 72.23C83.0599 72.08 97.8699 72 116.16 72C134.45 72 149.25 72.09 149.25 72.23Z" fill="#3CBBE3"/>
<path d="M249.16 72.23C249.16 72.38 234.34 72.49 216.07 72.49C197.8 72.49 182.97 72.38 182.97 72.23C182.97 72.08 197.78 71.97 216.07 71.97C234.36 71.97 249.16 72.09 249.16 72.23Z" fill="#263238"/>
<path d="M345.14 76C345.14 76.14 330.32 76.26 312.04 76.26C293.76 76.26 278.94 76.14 278.94 76C278.94 75.86 293.76 75.74 312.04 75.74C330.32 75.74 345.14 75.86 345.14 76Z" fill="#263238"/>
<path d="M438.35 76.74C438.35 76.89 423.53 77.01 405.25 77.01C386.97 77.01 372.15 76.89 372.15 76.74C372.15 76.59 386.97 76.48 405.25 76.48C423.53 76.48 438.35 76.6 438.35 76.74Z" fill="#263238"/>
<path d="M450.8 83.49H65.4399V106.19H450.8V83.49Z" fill="#FAFAFA"/>
<path d="M249.16 104.66H65.4399V127.36H249.16V104.66Z" fill="#3CBBE3"/>
<path d="M450.8 104.66H357.31V127.36H450.8V104.66Z" fill="#3CBBE3"/>
<path d="M224.134 156.215L90.3536 156.355L90.4589 256.905L224.239 256.765L224.134 156.215Z" fill="#3CBBE3"/>
<g opacity="0.2">
<path opacity="0.2" d="M90.46 256.91L137.12 194.35L166.11 233.43L185.72 212.5L224.24 256.76L90.46 256.91Z" fill="black"/>
</g>
<g opacity="0.2">
<path opacity="0.2" d="M178.35 186.65C178.354 188.735 177.739 190.774 176.584 192.51C175.429 194.246 173.785 195.6 171.86 196.401C169.935 197.202 167.815 197.414 165.77 197.011C163.724 196.607 161.844 195.606 160.368 194.133C158.891 192.661 157.885 190.784 157.475 188.74C157.066 186.695 157.272 184.575 158.068 182.648C158.863 180.721 160.213 179.073 161.945 177.913C163.677 176.752 165.715 176.132 167.8 176.13C170.593 176.13 173.272 177.237 175.249 179.209C177.227 181.181 178.342 183.857 178.35 186.65Z" fill="black"/>
</g>
<path d="M325.23 158.66C325.23 158.81 312.37 158.92 296.51 158.92C280.65 158.92 267.79 158.81 267.79 158.66C267.79 158.51 280.65 158.4 296.51 158.4C312.37 158.4 325.23 158.52 325.23 158.66Z" fill="#3CBBE3"/>
<path d="M412.06 177.93C412.06 178.07 379.76 178.19 339.93 178.19C300.1 178.19 267.79 178.07 267.79 177.93C267.79 177.79 300.08 177.67 339.93 177.67C379.78 177.67 412.06 177.78 412.06 177.93Z" fill="#263238"/>
<path d="M412.06 190.49C412.06 190.63 379.76 190.75 339.93 190.75C300.1 190.75 267.79 190.63 267.79 190.49C267.79 190.35 300.08 190.23 339.93 190.23C379.78 190.23 412.06 190.34 412.06 190.49Z" fill="#263238"/>
<path d="M412.06 203C412.06 203.15 379.76 203.27 339.93 203.27C300.1 203.27 267.79 203.15 267.79 203C267.79 202.85 300.08 202.74 339.93 202.74C379.78 202.74 412.06 202.9 412.06 203Z" fill="#263238"/>
<path d="M412.06 215.6C412.06 215.75 379.76 215.86 339.93 215.86C300.1 215.86 267.79 215.75 267.79 215.6C267.79 215.45 300.08 215.34 339.93 215.34C379.78 215.34 412.06 215.46 412.06 215.6Z" fill="#263238"/>
<path d="M412.06 228.16C412.06 228.31 379.76 228.42 339.93 228.42C300.1 228.42 267.79 228.31 267.79 228.16C267.79 228.01 300.08 227.9 339.93 227.9C379.78 227.9 412.06 228 412.06 228.16Z" fill="#263238"/>
<path d="M412.06 240.72C412.06 240.87 379.76 240.98 339.93 240.98C300.1 240.98 267.79 240.87 267.79 240.72C267.79 240.57 300.08 240.46 339.93 240.46C379.78 240.46 412.06 240.58 412.06 240.72Z" fill="#263238"/>
<path d="M412.06 251.39C412.06 251.54 379.76 251.65 339.93 251.65C300.1 251.65 267.79 251.54 267.79 251.39C267.79 251.24 300.08 251.13 339.93 251.13C379.78 251.13 412.06 251.25 412.06 251.39Z" fill="#263238"/>
<path d="M65.44 53.6L168.78 53.46H168.92V53.6C169.04 63 169.167 72.9633 169.3 83.49L169.14 83.33L450.8 83.24H451.05V83.49C451.05 146.24 451.05 214.85 451.05 286.3V286.56H450.65L65.44 286.5H65.24V286.3C65.36 143.74 65.44 55.24 65.44 53.6C65.44 55.24 65.52 143.74 65.64 286.3L65.44 286.1L450.66 286H450.8L450.54 286.26C450.54 214.81 450.54 146.2 450.54 83.45L450.78 83.7L169.12 83.61H169V83.45C168.893 72.93 168.783 62.9667 168.67 53.56L168.81 53.7L65.44 53.6Z" fill="#263238"/>
<path d="M136.19 115.72C136.19 115.86 124.98 115.98 111.19 115.98C97.3999 115.98 86.1899 115.86 86.1899 115.72C86.1899 115.58 97.3999 115.46 111.19 115.46C124.98 115.46 136.19 115.57 136.19 115.72Z" fill="#263238"/>
<path d="M157.25 127.42C157.11 127.42 156.99 122.49 156.99 116.42C156.99 110.35 157.11 105.42 157.25 105.42C157.39 105.42 157.51 110.34 157.51 116.42C157.51 122.5 157.4 127.42 157.25 127.42Z" fill="#263238"/>
<path d="M227.91 116.65C227.91 116.8 217.91 116.91 205.45 116.91C192.99 116.91 183 116.8 183 116.65C183 116.5 193.06 116.39 205.46 116.39C217.86 116.39 227.91 116.51 227.91 116.65Z" fill="#263238"/>
<path d="M439.43 116.18C439.43 116.33 427.17 116.45 412.06 116.45C396.95 116.45 384.68 116.33 384.68 116.18C384.68 116.03 396.93 115.92 412.06 115.92C427.19 115.92 439.43 116 439.43 116.18Z" fill="#263238"/>
<path d="M323.38 116.65C323.38 116.8 313.32 116.91 300.92 116.91C288.52 116.91 278.45 116.8 278.45 116.65C278.45 116.5 288.51 116.39 300.92 116.39C313.33 116.39 323.38 116.51 323.38 116.65Z" fill="#263238"/>
<path d="M450.8 127.36H449.11H444.16L425.3 127.42L357.3 127.51H357.09V127.29C357.09 120.1 357.09 112.49 357.09 104.59L357.32 104.82H258.14H249.14L249.4 104.56V127.56H249.14L118.25 127.47L79.49 127.39H69.04H66.34C65.73 127.39 65.42 127.39 65.42 127.39C65.42 127.39 65.73 127.39 66.34 127.39H69.04H79.49L118.25 127.31L249.14 127.22L248.88 127.48V104.48H258.11H357.29H357.52V104.71C357.52 112.61 357.52 120.22 357.52 127.41L357.3 127.2L425.3 127.29L444.16 127.35H449.11L450.8 127.36Z" fill="#263238"/>
<path d="M428.8 157.15L438.4 185.89L441.84 177.03L453.67 190.39L458.12 186.41L446.29 173.05L455.12 170.43L428.8 157.15Z" fill="#263238"/>
<path d="M424 158.54C421.635 158.835 419.253 158.962 416.87 158.92C414.49 159.046 412.103 158.999 409.73 158.78C412.094 158.479 414.477 158.352 416.86 158.4C419.24 158.268 421.627 158.315 424 158.54Z" fill="#263238"/>
<path d="M427.22 155C426.357 154.538 425.531 154.01 424.75 153.42C423.26 152.42 421.22 150.94 418.99 149.31C416.76 147.68 414.75 146.18 413.32 145.08C412.512 144.523 411.755 143.893 411.06 143.2C411.93 143.646 412.757 144.171 413.53 144.77C415.02 145.77 417.06 147.26 419.3 148.89C421.54 150.52 423.53 152.02 424.97 153.12C425.777 153.675 426.53 154.305 427.22 155Z" fill="#263238"/>
<path d="M430.68 152.33C430.345 150.71 430.157 149.064 430.12 147.41C430.03 146.19 429.96 145.08 429.88 143.92C429.822 143.442 429.788 142.961 429.78 142.48C430.03 142.41 430.46 144.65 430.64 147.37C430.845 149.016 430.858 150.681 430.68 152.33Z" fill="#263238"/>
<path d="M90.59 452.348V472.518L131.27 472.328C130.97 468.238 108.65 460.078 108.65 460.078L109.09 452.348H90.59Z" fill="#3CBBE3"/>
<g opacity="0.6">
<path opacity="0.6" d="M97.17 458.248C96.7782 458.396 96.4517 458.679 96.2485 459.045C96.0453 459.411 95.9785 459.837 96.06 460.248C96.1554 460.653 96.4057 461.004 96.7571 461.227C97.1086 461.449 97.5332 461.525 97.94 461.438C98.3569 461.279 98.7031 460.975 98.9158 460.583C99.1286 460.19 99.1939 459.735 99.1 459.298C99.0304 459.095 98.9211 458.908 98.7785 458.747C98.6359 458.587 98.4628 458.456 98.2692 458.363C98.0757 458.27 97.8656 458.216 97.6511 458.205C97.4366 458.194 97.2221 458.226 97.02 458.298" fill="white"/>
</g>
<path d="M90.59 472.518V469.298L129.43 469.758C129.43 469.758 131.43 470.978 131.27 472.328L90.59 472.518Z" fill="#263238"/>
<path d="M108.65 460.468C108.65 460.678 107.65 460.788 106.65 461.468C105.65 462.148 105.18 463.048 105 462.968C104.82 462.888 105.09 461.678 106.27 460.858C107.45 460.038 108.69 460.268 108.65 460.468Z" fill="#263238"/>
<path d="M114 462.328C114.05 462.538 113.19 462.898 112.54 463.798C111.89 464.698 111.7 465.628 111.54 465.628C111.38 465.628 111.2 464.438 112.04 463.338C112.88 462.238 114 462.128 114 462.328Z" fill="#263238"/>
<path d="M116.37 467.468C116.2 467.518 115.91 466.468 116.37 465.328C116.83 464.188 117.77 463.698 117.86 463.878C117.95 464.058 117.38 464.668 116.99 465.618C116.6 466.568 116.57 467.448 116.37 467.468Z" fill="#263238"/>
<path d="M108.25 454.728C108.17 454.918 107.25 454.648 106.15 454.728C105.05 454.808 104.15 455.208 104.06 455.028C103.97 454.848 104.78 454.088 106.06 454.028C107.34 453.968 108.35 454.568 108.25 454.728Z" fill="#263238"/>
<path d="M108.48 461.368C108.593 460.969 108.623 460.55 108.57 460.138C108.481 459.005 108.11 457.911 107.49 456.958C107.069 456.305 106.529 455.735 105.9 455.278C105.713 455.121 105.488 455.017 105.247 454.975C105.007 454.932 104.759 454.954 104.53 455.038C104.29 455.169 104.088 455.361 103.946 455.594C103.804 455.828 103.726 456.095 103.72 456.368C103.785 457.42 104.16 458.429 104.797 459.269C105.434 460.109 106.305 460.742 107.3 461.088C108.273 461.399 109.317 461.409 110.296 461.119C111.275 460.828 112.144 460.249 112.79 459.458C113.115 459.095 113.363 458.67 113.52 458.208C113.6 457.948 113.6 457.669 113.52 457.408C113.473 457.276 113.399 457.155 113.303 457.054C113.206 456.952 113.089 456.872 112.96 456.818C112.539 456.7 112.088 456.746 111.7 456.948C111.352 457.099 111.017 457.28 110.7 457.488C109.783 458.098 108.992 458.879 108.37 459.788C108.122 460.113 107.933 460.479 107.81 460.868C108.652 459.687 109.702 458.671 110.91 457.868C111.45 457.558 112.17 457.108 112.74 457.308C113 457.408 113.1 457.708 112.98 458.058C112.827 458.427 112.611 458.765 112.34 459.058C111.751 459.753 110.97 460.26 110.095 460.514C109.22 460.768 108.29 460.759 107.42 460.488C106.547 460.184 105.78 459.637 105.209 458.91C104.639 458.183 104.288 457.308 104.2 456.388C104.195 456.212 104.237 456.038 104.322 455.884C104.406 455.729 104.53 455.6 104.68 455.508C104.833 455.459 104.996 455.449 105.153 455.481C105.311 455.512 105.458 455.584 105.58 455.688C106.172 456.093 106.687 456.601 107.1 457.188C107.72 458.084 108.124 459.111 108.28 460.188C108.45 460.898 108.43 461.368 108.48 461.368Z" fill="#263238"/>
<path d="M75.73 455.278L76.42 460.458L75.9601 472.168L60.7101 472.538L60.17 460.458L61.9 453.288L75.73 455.278Z" fill="#3CBBE3"/>
<path d="M68.4201 471.288C68.3301 471.288 68.5501 467.708 68.9101 463.288C69.2701 458.868 69.6401 455.288 69.7401 455.288C69.8401 455.288 69.6101 458.858 69.2501 463.288C68.8901 467.718 68.5101 471.278 68.4201 471.288Z" fill="#263238"/>
<path d="M76.02 470.218L60.61 470.398V472.538L76.03 472.518L76.02 470.218Z" fill="#263238"/>
<path d="M60.65 463.488C60.7357 463.275 60.8538 463.076 61 462.898C62.0217 461.589 63.3281 460.528 64.82 459.798C66.3834 459.032 68.1516 458.788 69.8639 459.103C71.5762 459.418 73.1419 460.276 74.33 461.548C74.7734 462.049 75.1468 462.607 75.44 463.208C75.64 463.638 75.71 463.888 75.68 463.898C75.2096 463.149 74.6777 462.44 74.09 461.778C72.5667 460.273 70.5116 459.429 68.37 459.428C66.2341 459.5 64.1871 460.301 62.57 461.698C61.34 462.708 60.72 463.538 60.65 463.488Z" fill="#263238"/>
<path d="M68.3499 128.618L68.1899 181.338L90.8099 182.418L91.4599 169.588C91.4599 169.588 99.4599 171.188 101.57 163.728C102.89 158.958 102.57 122.128 102.57 122.128L68.3499 128.618Z" fill="#FFBE9D"/>
<path d="M105.54 125.838C101.98 126.838 101.2 132.678 101.2 132.678L95.62 145.028C92.77 142.798 88.95 142.918 88.22 147.928C87.7 151.538 92.22 152.268 92.22 152.268C89.61 156.728 87.83 160.328 84.02 164.558C79.9 169.148 77.59 169.608 73.12 169.678H68.19C68.19 169.678 65.78 161.848 61.31 142.248C56.31 120.518 82.05 123.318 86.82 117.768C94.55 108.728 116.77 122.628 105.54 125.838Z" fill="#263238"/>
<path d="M61.75 144.298C57.58 141.508 57.2 133.678 59.63 128.978C60.8767 126.633 62.7205 124.658 64.9751 123.253C67.2296 121.848 69.815 121.064 72.47 120.978C73.1754 121.025 73.8834 120.943 74.56 120.738C75.4932 120.251 76.2723 119.513 76.81 118.608C80.54 113.768 84.2 109.008 91.14 109.008C92.6673 108.938 94.182 109.313 95.5 110.088C96.727 110.93 97.6467 112.148 98.12 113.558C99.3959 112.879 100.763 112.387 102.18 112.098C102.89 111.961 103.622 111.979 104.325 112.151C105.028 112.324 105.684 112.647 106.25 113.098C106.801 113.568 107.167 114.217 107.284 114.931C107.401 115.645 107.262 116.377 106.89 116.998C108.065 116.984 109.207 117.388 110.111 118.14C111.014 118.891 111.62 119.94 111.82 121.098C112.19 123.408 108.87 125.038 108.52 125.218C108.52 125.218 110.34 129.028 106 131.318C104.26 132.238 102 131.128 101.72 130.998" fill="#263238"/>
<path d="M78.26 149.368C78.6854 152.055 78.0664 154.803 76.53 157.048C76.38 156.968 77.11 155.358 77.53 153.248C77.95 151.138 78.09 149.378 78.26 149.368Z" fill="#455A64"/>
<path d="M81 146.788C81.1861 148.073 81.1147 149.382 80.79 150.638C80.6477 151.931 80.2391 153.181 79.59 154.308C79.6865 153.035 79.8974 151.774 80.22 150.538C80.3572 149.266 80.6184 148.01 81 146.788Z" fill="#455A64"/>
<path d="M88.83 138.088C88.83 138.158 88.24 138.628 87.43 139.578C86.3868 140.835 85.5621 142.258 84.99 143.788C84.4316 145.335 83.9805 146.919 83.64 148.528C83.5458 149.217 83.3574 149.89 83.08 150.528C83.0368 149.834 83.0907 149.137 83.24 148.458C83.4684 146.795 83.8775 145.162 84.46 143.588C85.0409 141.994 85.9506 140.539 87.13 139.318C87.5858 138.774 88.17 138.351 88.83 138.088Z" fill="#455A64"/>
<path d="M92 132.158C92.2601 132.592 92.4111 133.083 92.44 133.588C92.6026 134.79 92.5347 136.012 92.24 137.188C91.9459 138.367 91.4263 139.477 90.71 140.458C90.16 141.198 89.71 141.548 89.65 141.508C90.4995 140.111 91.1714 138.612 91.65 137.048C92.37 134.408 91.82 132.188 92 132.158Z" fill="#455A64"/>
<path d="M65 145.328C64.92 145.468 64.23 145.228 63.46 144.788C62.69 144.348 62.11 143.888 62.19 143.788C62.27 143.688 62.96 143.888 63.73 144.318C64.5 144.748 65.08 145.188 65 145.328Z" fill="#455A64"/>
<path d="M75.93 139.698C76.08 139.698 75.99 140.838 75.28 141.988C74.57 143.138 73.64 143.748 73.55 143.628C73.46 143.508 74.16 142.758 74.79 141.698C75.42 140.638 75.77 139.658 75.93 139.698Z" fill="#455A64"/>
<path d="M79.2901 137.898C79.2717 138.898 78.9197 139.862 78.2901 140.638C77.3901 142.008 76.2901 142.748 76.1601 142.638C76.0301 142.528 76.9701 141.638 77.8201 140.328C78.2604 139.489 78.7513 138.678 79.2901 137.898Z" fill="#455A64"/>
<path d="M96 115.818C96 115.818 95.58 115.488 94.76 115.028C93.5946 114.397 92.2951 114.054 90.97 114.028C89.0121 113.981 87.0819 114.498 85.41 115.518C83.4005 116.836 81.77 118.656 80.68 120.798C79.8545 122.368 79.2071 124.025 78.75 125.738L78.66 126.068L78.36 125.908C76.8153 125.098 75.1039 124.657 73.36 124.618C71.9677 124.585 70.5804 124.795 69.26 125.238C68.0845 125.68 66.9584 126.243 65.9 126.918C66.121 126.661 66.3768 126.435 66.66 126.248C67.4216 125.693 68.2561 125.245 69.14 124.918C70.6762 124.334 72.3177 124.077 73.959 124.165C75.6003 124.253 77.205 124.683 78.67 125.428L78.27 125.598C78.7214 123.838 79.3757 122.137 80.22 120.528C81.3666 118.293 83.0936 116.407 85.22 115.068C86.982 114.014 89.0199 113.512 91.07 113.628C92.4476 113.683 93.7876 114.093 94.96 114.818C95.2677 115.021 95.5557 115.252 95.82 115.508C95.92 115.698 96 115.798 96 115.818Z" fill="#455A64"/>
<path d="M107.89 118.688C107.89 118.688 108.51 118.518 109.18 119.268C109.373 119.495 109.518 119.757 109.607 120.041C109.697 120.324 109.728 120.622 109.7 120.918C109.647 121.313 109.5 121.69 109.272 122.016C109.044 122.343 108.742 122.611 108.39 122.798C107.557 123.276 106.571 123.412 105.64 123.178C104.616 122.912 103.654 122.446 102.81 121.808C101.913 121.115 100.975 120.477 100 119.898C98.9548 119.334 97.8279 118.936 96.66 118.718C94.3826 118.311 92.04 118.473 89.84 119.188C88.0546 119.787 86.3692 120.65 84.84 121.748C83.4478 122.814 82.1126 123.952 80.84 125.158C81.0821 124.745 81.3818 124.368 81.73 124.038C82.6165 123.084 83.5834 122.207 84.62 121.418C86.1695 120.24 87.8982 119.318 89.74 118.688C92.0206 117.915 94.4598 117.733 96.83 118.158C98.0542 118.387 99.2351 118.805 100.33 119.398C101.308 120.004 102.247 120.672 103.14 121.398C103.927 122.008 104.823 122.463 105.78 122.738C106.598 122.96 107.47 122.864 108.22 122.468C108.525 122.314 108.792 122.093 109 121.821C109.208 121.549 109.351 121.234 109.42 120.898C109.482 120.378 109.346 119.853 109.04 119.428C108.76 119.05 108.351 118.786 107.89 118.688Z" fill="#455A64"/>
<path d="M175.6 143.718L157.16 180.778L113.67 182.998L115.46 206.998C115.46 206.998 163.93 203.778 168.82 197.998C174.12 191.768 186.7 153.508 186.71 153.388C186.72 153.268 188.23 148.908 188.21 148.898L175.6 143.718Z" fill="#FFBE9D"/>
<path d="M173.18 149.268L176.91 141.188C178.39 136.068 183.24 126.278 183.24 126.278C183.24 126.278 191.56 116.958 192.65 117.278C193.74 117.598 194.3 118.708 193.18 120.118C192.06 121.528 187.98 128.518 187.98 128.518C187.98 128.518 190.31 128.958 190.59 130.458C190.783 131.218 190.748 132.018 190.49 132.758C190.49 132.758 192.68 133.368 193.4 134.438C193.828 135.073 194.133 135.782 194.3 136.528C194.695 136.544 195.073 136.693 195.373 136.951C195.672 137.208 195.876 137.56 195.95 137.948C196.223 138.883 196.345 139.855 196.31 140.828C196.31 140.828 193.4 145.688 191.99 146.468C190.58 147.248 188.67 148.198 188.67 148.198L185.6 156.398" fill="#FFBE9D"/>
<path d="M119.59 388.898C119.73 387.418 119.8 386.288 119.8 385.578L124.34 313.088C124.34 313.088 120.52 291.928 118.72 286.308L102.49 280.028L80.87 288.448C80.72 286.708 80.64 285.628 80.64 285.628L48.79 296.628C48.79 296.628 47.96 318.358 48.79 324.968C49.05 327.098 49.89 332.588 50.9 339.048C50.9 339.048 51.9 353.108 52.13 353.888C52.9 356.758 53.13 363.778 53.13 370.808C53.13 379.738 53.62 390.378 54.13 395.428C54.64 400.478 54.96 456.068 54.96 456.068H78.46L81.46 367.528C81.97 358.048 82.73 343.528 83.21 333.038L88.73 365.728C88.73 366.928 92.09 385.618 92.09 385.618C91.3105 391.5 90.8299 397.418 90.65 403.348C90.26 419.828 88.33 456.068 88.33 456.068H111.33C111.33 456.068 118.24 403.738 119.58 388.888L119.59 388.898Z" fill="#263238"/>
<path d="M123.55 308.698C122.795 308.42 122.082 308.04 121.43 307.568C118.165 305.475 115.348 302.756 113.14 299.568C112.645 298.934 112.241 298.234 111.94 297.488C112.477 298.079 112.971 298.708 113.42 299.368C114.592 300.876 115.865 302.303 117.23 303.638C118.61 304.961 120.081 306.188 121.63 307.308C122.304 307.722 122.946 308.187 123.55 308.698Z" fill="#455A64"/>
<path d="M80.9399 317.448C80.7572 317.227 80.6058 316.981 80.49 316.718C80.1178 316.041 79.7839 315.343 79.49 314.628C78.5062 312.272 77.7884 309.814 77.35 307.298C76.9104 304.784 76.7561 302.228 76.8899 299.678C76.9218 298.905 76.9953 298.134 77.1099 297.368C77.1222 297.083 77.183 296.803 77.2899 296.538C77.3699 296.538 77.29 297.748 77.24 299.688C77.1736 304.742 78.0485 309.764 79.82 314.498C80.5 316.318 80.9999 317.408 80.9399 317.448Z" fill="#455A64"/>
<path d="M86 349.158C85.8585 348.749 85.758 348.327 85.7 347.898C85.53 346.978 85.32 345.818 85.06 344.428L83.14 332.958C81.84 324.828 80.95 319.298 80.54 316.718C81.0652 318.244 81.4371 319.819 81.65 321.418C82.21 324.338 82.92 328.418 83.65 332.878C84.38 337.338 85 341.428 85.43 344.378C85.62 345.768 85.78 346.938 85.9 347.868C85.9825 348.293 86.016 348.726 86 349.158Z" fill="#455A64"/>
<path d="M30.49 228.648C30.49 228.648 27.39 250.488 26.81 258.148C26.46 262.758 31.14 268.878 34.71 269.318C38.28 269.758 50.33 270.488 50.33 270.488L51.33 256.788L51.02 254.058L47.28 253.358L47.74 231.308L30.49 228.648Z" fill="#FFBE9D"/>
<path d="M47.9101 231.978C48.0081 232.367 48.0551 232.767 48.05 233.168C48.11 233.938 48.16 235.048 48.19 236.418C48.25 239.158 48.19 242.958 47.95 247.138C47.71 251.318 47.38 255.088 47.11 257.818C46.97 259.188 46.85 260.288 46.76 261.048C46.7376 261.449 46.6671 261.845 46.55 262.228C46.5113 261.829 46.5113 261.427 46.55 261.028C46.55 260.158 46.6701 259.028 46.7401 257.788C46.9301 254.938 47.17 251.218 47.43 247.108C47.69 242.998 47.7901 239.108 47.8201 236.418C47.8201 235.138 47.8201 234.048 47.8201 233.178C47.8121 232.776 47.8422 232.375 47.9101 231.978Z" fill="#EB996E"/>
<path d="M141.12 180.778C141.74 180.618 108.28 177.198 108.28 177.198C102.842 176.559 97.3636 176.319 91.89 176.478H69.06C69.06 176.478 41.39 184.638 36.82 192.158L25 227.708L48.44 231.248L51.36 256.788C51.36 256.788 48.45 286.358 48.45 290.648C48.3846 292.636 48.5085 294.625 48.82 296.588C48.82 296.588 95.27 286.138 106.82 289.898C118.37 293.658 121.76 294.688 121.76 294.688C121.76 294.688 120.97 284.318 120.12 277.198L117.44 241.558L115.32 212.428L141.16 209.428L141.12 180.778Z" fill="#455A64"/>
<path d="M47.56 232.118C47.48 232.118 47.27 230.618 46.78 228.198C46.1454 225.052 45.3001 221.952 44.25 218.918C43.183 215.886 41.9272 212.924 40.49 210.048L39.17 207.438C38.9769 207.126 38.8256 206.79 38.72 206.438C38.963 206.708 39.1712 207.007 39.34 207.328C39.71 207.908 40.21 208.778 40.8 209.868C42.3409 212.712 43.6517 215.675 44.72 218.728C45.7873 221.785 46.5935 224.926 47.13 228.118C47.33 229.338 47.46 230.328 47.51 231.028C47.5793 231.387 47.5961 231.754 47.56 232.118Z" fill="#263238"/>
<path d="M92.43 241.618C92.4058 241.779 92.3656 241.936 92.31 242.088C92.19 242.438 92.04 242.878 91.87 243.398C91.7 243.918 91.43 244.668 91.11 245.458C90.79 246.248 90.45 247.168 90 248.148C89.16 250.148 88 252.428 86.68 254.938C85.1845 257.643 83.5524 260.27 81.79 262.808C80.0097 265.335 78.1005 267.768 76.07 270.098C74.18 272.228 72.4 274.098 70.83 275.548C70.06 276.298 69.32 276.928 68.68 277.548C68.04 278.168 67.48 278.548 67.01 278.958L65.93 279.828C65.68 280.018 65.54 280.118 65.53 280.098C65.6249 279.968 65.7358 279.851 65.86 279.748L66.86 278.818C67.31 278.418 67.86 277.928 68.47 277.338C69.08 276.748 69.81 276.098 70.55 275.338C72.09 273.848 73.84 271.978 75.7 269.848C77.56 267.718 79.47 265.248 81.35 262.568C83.23 259.888 84.85 257.228 86.25 254.768C87.65 252.308 88.77 250.008 89.65 248.048C90.12 247.048 90.48 246.188 90.82 245.408C91.16 244.628 91.44 243.938 91.66 243.408L92.18 242.128C92.34 241.758 92.41 241.608 92.43 241.618Z" fill="#263238"/>
<path opacity="0.3" d="M75.16 256.118C72.562 260.286 70.3974 264.709 68.7 269.318C76.0331 263.337 81.8078 255.668 85.53 246.968C81.15 248.648 77.67 252.148 75.16 256.118Z" fill="black"/>
<path d="M108.87 200.258C108.631 200.288 108.389 200.288 108.15 200.258L106.09 200.188C104.31 200.108 101.73 200.008 98.5399 199.918C92.1699 199.738 83.35 199.698 73.63 200.128C63.91 200.558 55.1299 201.398 48.7899 202.128C45.6199 202.508 43.06 202.828 41.3 203.068L39.3 203.328C39.0613 203.362 38.8209 203.382 38.58 203.388C38.806 203.307 39.0411 203.253 39.28 203.228L41.28 202.868C43.04 202.568 45.5899 202.188 48.7599 201.768C55.0899 200.918 63.87 200.028 73.61 199.588C83.35 199.148 92.18 199.258 98.61 199.538C101.8 199.668 104.38 199.818 106.16 199.968L108.21 200.138C108.433 200.163 108.653 200.203 108.87 200.258Z" fill="white"/>
<path d="M108 179.548C107.798 179.576 107.592 179.576 107.39 179.548H105.66C104.15 179.548 101.98 179.548 99.2899 179.618C93.9099 179.708 86.4799 180.028 78.2899 180.698C70.0999 181.368 62.7199 182.238 57.3699 182.868L51.0399 183.618L49.32 183.808C49.1171 183.828 48.9128 183.828 48.71 183.808C48.8995 183.736 49.0979 183.688 49.3 183.668L51.0099 183.388C52.4999 183.158 54.66 182.838 57.33 182.478C62.66 181.748 70.05 180.828 78.25 180.148C86.45 179.468 93.89 179.218 99.25 179.218C101.95 179.218 104.13 179.218 105.63 179.308L107.37 179.388C107.585 179.42 107.796 179.474 108 179.548Z" fill="white"/>
<path d="M122.82 210.408C122.532 210.105 122.28 209.77 122.07 209.408C121.43 208.445 120.849 207.443 120.33 206.408C119.56 204.874 118.892 203.291 118.33 201.668C117.655 199.677 117.13 197.638 116.76 195.568C116.409 193.493 116.218 191.393 116.19 189.288C116.171 187.57 116.271 185.853 116.49 184.148C116.627 183 116.834 181.861 117.11 180.738C117.192 180.321 117.313 179.913 117.47 179.518C117.57 179.518 117.15 181.298 116.86 184.188C116.693 185.879 116.629 187.579 116.67 189.278C116.729 191.356 116.929 193.428 117.27 195.478C117.642 197.51 118.15 199.514 118.79 201.478C119.322 203.089 119.954 204.665 120.68 206.198C121.91 208.898 122.9 210.358 122.82 210.408Z" fill="white"/>
<path d="M133.83 209.058C133.613 208.744 133.429 208.409 133.28 208.058C132.95 207.408 132.53 206.438 132.06 205.228C129.659 198.828 128.889 191.931 129.82 185.158C129.955 184.149 130.142 183.148 130.38 182.158C130.444 181.786 130.555 181.423 130.71 181.078C130.8 181.078 130.46 182.668 130.19 185.238C129.468 191.954 130.226 198.747 132.41 205.138C133.24 207.558 133.92 209.018 133.83 209.058Z" fill="white"/>
<path d="M45.36 221.418C44.4917 221.495 43.6184 221.495 42.75 221.418L36.45 221.338C33.99 221.338 31.76 221.228 30.15 221.108C29.2747 221.1 28.4028 220.996 27.55 220.798C28.4197 220.698 29.2967 220.678 30.17 220.738L36.4601 220.818C38.9201 220.818 41.15 220.938 42.76 221.048C43.6374 221.079 44.509 221.203 45.36 221.418Z" fill="white"/>
<path d="M37.51 207.898C36.5621 208.086 35.5917 208.134 34.63 208.038C33.6574 208.109 32.6806 207.98 31.76 207.658C32.708 207.471 33.6783 207.424 34.64 207.518C35.6126 207.447 36.5894 207.577 37.51 207.898Z" fill="white"/>
<path d="M114.9 222.708C114.9 222.848 99.7999 223.298 81.1699 223.708C62.5399 224.118 47.4299 224.328 47.4299 224.188C47.4299 224.048 62.5299 223.598 81.1599 223.188C99.7899 222.778 114.89 222.568 114.9 222.708Z" fill="white"/>
<path d="M89.8 246.698C89.2849 246.792 88.7633 246.845 88.24 246.858C87.24 246.928 85.78 246.998 83.98 247.068C80.38 247.198 75.4 247.268 69.91 247.128C64.42 246.988 59.45 246.678 55.91 246.368C54.12 246.218 52.67 246.078 51.67 245.948C51.1478 245.915 50.6293 245.838 50.12 245.718C50.639 245.672 51.161 245.672 51.68 245.718L55.94 245.978C59.53 246.188 64.49 246.438 69.94 246.578C75.39 246.718 80.39 246.708 83.99 246.668H88.25C88.7665 246.631 89.2854 246.641 89.8 246.698Z" fill="white"/>
<path d="M117 246.948C115.783 247.004 114.563 246.974 113.35 246.858L104.58 246.388L95.8 245.938C94.5849 245.923 93.3722 245.826 92.17 245.648C92.498 245.575 92.8351 245.551 93.17 245.578C93.8 245.578 94.71 245.578 95.84 245.578C98.09 245.578 101.2 245.698 104.63 245.878C108.06 246.058 111.16 246.288 113.4 246.498C114.52 246.608 115.4 246.698 116.05 246.778C116.372 246.796 116.691 246.853 117 246.948Z" fill="white"/>
<path d="M73.58 271.258C73.58 271.408 68.37 271.448 61.94 271.368C55.51 271.288 50.3 271.098 50.3 270.958C50.3 270.818 55.51 270.768 61.94 270.848C68.37 270.928 73.59 271.118 73.58 271.258Z" fill="white"/>
<path d="M118.28 271.548C117.752 271.574 117.223 271.55 116.7 271.478L112.42 271.118C108.81 270.808 103.82 270.388 98.3 269.998C92.78 269.608 87.77 269.328 84.15 269.128L79.86 268.888C79.3332 268.888 78.8075 268.837 78.29 268.738C78.8159 268.698 79.3441 268.698 79.87 268.738C80.87 268.738 82.35 268.738 84.17 268.818C87.8 268.918 92.81 269.138 98.33 269.528C103.85 269.918 108.85 270.398 112.46 270.808C114.26 271.008 115.72 271.188 116.72 271.328C117.245 271.361 117.767 271.434 118.28 271.548Z" fill="white"/>
<path d="M121.43 292.008C121.205 291.897 120.988 291.77 120.78 291.628C120.36 291.358 119.78 290.978 118.91 290.528C116.583 289.257 114.121 288.251 111.57 287.528C107.787 286.474 103.894 285.86 99.97 285.698C95.1521 285.531 90.3287 285.618 85.52 285.958C80.39 286.238 75.52 286.518 71.08 286.958C67.1619 287.321 63.2662 287.896 59.41 288.678C56.8133 289.21 54.2464 289.877 51.72 290.678C50.82 290.948 50.15 291.228 49.67 291.368C49.4372 291.464 49.1962 291.537 48.95 291.588C49.1662 291.464 49.3939 291.36 49.63 291.278C50.1 291.098 50.76 290.788 51.63 290.488C54.1373 289.593 56.6991 288.858 59.3 288.288C63.1622 287.467 67.0687 286.869 71 286.498C75.43 286.038 80.32 285.738 85.45 285.498C90.2754 285.155 95.1163 285.081 99.95 285.278C103.911 285.486 107.835 286.157 111.64 287.278C114.203 288.034 116.664 289.099 118.97 290.448C119.601 290.808 120.212 291.202 120.8 291.628C121.024 291.731 121.235 291.858 121.43 292.008Z" fill="white"/>
<path d="M108.36 179.548C107.456 180.847 106.839 182.323 106.55 183.878C106.26 185.566 106.26 187.291 106.55 188.978C106.924 191.057 107.412 193.113 108.01 195.138C109.2 199.478 110.46 203.368 111.41 206.138C111.87 207.458 112.25 208.568 112.56 209.448C112.724 209.845 112.848 210.257 112.93 210.678C112.703 210.312 112.516 209.923 112.37 209.518C112.04 208.758 111.59 207.648 111.07 206.268C110.07 203.498 108.7 199.618 107.5 195.268C106.905 193.224 106.428 191.147 106.07 189.048C105.789 187.31 105.82 185.536 106.16 183.808C106.395 182.645 106.846 181.536 107.49 180.538C107.716 180.157 108.011 179.821 108.36 179.548Z" fill="#263238"/>
<path d="M468.49 271.78C458.01 277.21 449.97 286.56 444.19 296.86C438.41 307.16 434.68 318.45 430.99 329.66L427.77 387.5C439.96 366.75 449.77 342.35 452.4 318.43L444.29 317.7C449.74 316.86 454.29 312.92 457.21 308.24C460.13 303.56 461.61 298.18 463.07 292.87L453.17 294.34C460.988 289.07 466.474 280.99 468.49 271.78Z" fill="#455A64"/>
<g opacity="0.3">
<path opacity="0.3" d="M468.49 271.78C458.01 277.21 449.97 286.56 444.19 296.86C438.41 307.16 434.68 318.45 430.99 329.66L427.77 387.5C439.96 366.75 449.77 342.35 452.4 318.43L444.29 317.7C449.74 316.86 454.29 312.92 457.21 308.24C460.13 303.56 461.61 298.18 463.07 292.87L453.17 294.34C460.988 289.07 466.474 280.99 468.49 271.78Z" fill="black"/>
</g>
<path d="M425.97 401.06C425.97 401.06 399.49 369.36 399.8 339.11H410.49C410.49 339.11 398.88 331.47 399.79 327.19C400.7 322.91 401.02 306.7 401.02 306.7L410.8 309.14C410.8 309.14 403.49 305.5 402.55 299.7C401.61 293.9 404.69 267 404.69 267C404.69 267 416.6 279.53 420.27 292.37C423.94 305.21 433.56 320.17 430.74 359.29C427.92 398.41 425.97 401.06 425.97 401.06Z" fill="#455A64"/>
<path d="M439.39 404.05C439.39 404.05 468.08 384.94 474.45 360.55L465.85 358.21C465.85 358.21 476.85 354.61 477.06 350.97C477.27 347.33 480.56 334.24 480.56 334.24L472.16 334.06C472.16 334.06 478.86 332.72 480.87 328.25C482.88 323.78 486.3 301.5 486.3 301.5C486.3 301.5 473.98 308.96 468.22 318.5C462.46 328.04 451.49 337.93 445.16 369.99C438.83 402.05 439.39 404.05 439.39 404.05Z" fill="#455A64"/>
<path d="M411.92 294.62C411.963 294.727 411.997 294.837 412.02 294.95C412.07 295.2 412.15 295.52 412.25 295.95L413.09 299.71C413.46 301.34 413.89 303.34 414.35 305.71C414.81 308.08 415.35 310.71 415.91 313.64C417.04 319.51 418.24 326.54 419.47 334.35C420.7 342.16 421.86 350.79 422.92 359.86C423.98 368.93 424.76 377.6 425.38 385.49C426 393.38 426.38 400.49 426.64 406.49C426.79 409.49 426.86 412.18 426.93 414.56C427 416.94 427.05 418.98 427.07 420.65C427.09 422.32 427.07 423.59 427.07 424.5V425.5C427.085 425.613 427.085 425.727 427.07 425.84C427.058 425.727 427.058 425.613 427.07 425.5C427.07 425.24 427.07 424.91 427.02 424.5C427.02 423.58 426.94 422.29 426.88 420.65C426.82 419.01 426.77 416.93 426.66 414.56C426.55 412.19 426.46 409.48 426.29 406.49C426.01 400.49 425.54 393.41 424.93 385.49C424.32 377.57 423.46 368.95 422.42 359.88C421.38 350.81 420.19 342.21 419.02 334.39C417.85 326.57 416.65 319.54 415.57 313.66C415.05 310.72 414.57 308.06 414.08 305.73C413.59 303.4 413.25 301.39 412.91 299.73C412.57 298.07 412.34 296.84 412.17 295.95L411.98 294.95C411.951 294.842 411.931 294.731 411.92 294.62Z" fill="#263238"/>
<path d="M422.3 420.46C422.3 420.46 398.07 392.97 390.54 376.35L396.22 373.92C392.11 374.6 387.89 372.83 384.7 370.15C381.51 367.47 379.16 363.93 376.86 360.44L384.34 359.18C377.468 357.219 371.615 352.685 368 346.52C376.82 347.97 384.81 352.82 391.39 358.88C396.618 363.903 401.365 369.404 405.57 375.31C407.692 378.144 409.537 381.174 411.08 384.36C415.15 392.78 422.31 410.37 422.3 420.46Z" fill="#455A64"/>
<path d="M474.83 317.5C474.805 317.597 474.768 317.691 474.72 317.78C474.63 317.99 474.5 318.25 474.35 318.58C474 319.31 473.5 320.33 472.88 321.63C471.58 324.27 469.74 328.11 467.52 332.87C465.3 337.63 462.71 343.35 459.95 349.73C457.19 356.11 454.3 363.19 451.39 370.67C448.48 378.15 445.91 385.35 443.64 391.92C441.37 398.49 439.45 404.45 437.9 409.48C436.35 414.51 435.11 418.58 434.3 421.41L433.3 424.65L433.03 425.49C432.97 425.68 432.93 425.78 432.93 425.78C432.918 425.68 432.918 425.58 432.93 425.48C432.99 425.26 433.06 424.98 433.14 424.63L434.01 421.35C434.77 418.51 435.94 414.41 437.45 409.35C438.96 404.29 440.87 398.35 443.09 391.74C445.31 385.13 447.93 377.95 450.82 370.46C453.71 362.97 456.66 355.9 459.42 349.52C462.18 343.14 464.82 337.44 467.09 332.7C469.36 327.96 471.25 324.13 472.61 321.52C473.27 320.24 473.79 319.23 474.17 318.52C474.34 318.2 474.48 317.95 474.58 317.74C474.68 317.53 474.82 317.49 474.83 317.5Z" fill="#263238"/>
<path d="M424.35 432.24C424.284 432.081 424.244 431.912 424.23 431.74C424.17 431.35 424.09 430.86 423.99 430.28C423.81 429.01 423.49 427.18 423.05 424.93C422.61 422.68 421.99 420.03 421.19 417.1C420.39 414.17 419.37 411.01 418.14 407.74C416.91 404.47 415.55 401.43 414.24 398.74C412.93 396.05 411.62 393.61 410.46 391.64C409.3 389.67 408.34 388.07 407.64 387L406.85 385.74C406.79 385.764 406.724 385.765 406.664 385.742C406.603 385.72 406.554 385.676 406.524 385.619C406.494 385.562 406.486 385.496 406.502 385.434C406.518 385.372 406.556 385.318 406.61 385.282C406.663 385.246 406.728 385.232 406.791 385.241C406.855 385.25 406.913 385.283 406.954 385.332C406.995 385.382 407.016 385.445 407.014 385.509C407.011 385.573 406.985 385.634 406.94 385.68C407.17 386.01 407.46 386.4 407.81 386.88C408.56 387.93 409.58 389.48 410.81 391.45C412.04 393.42 413.34 395.81 414.7 398.52C416.06 401.23 417.41 404.31 418.7 407.6C419.99 410.89 420.93 414.08 421.7 417.02C422.47 419.96 423.06 422.64 423.45 424.91C423.84 427.18 424.11 429.01 424.24 430.29C424.29 430.88 424.34 431.37 424.38 431.77C424.389 431.927 424.378 432.085 424.35 432.24Z" fill="#263238"/>
<path d="M456.32 425.78H403.29V436.6H456.32V425.78Z" fill="#3CBBE3"/>
<path d="M408.35 436.59L414.08 472.98H446.13L451.47 436.59H408.35Z" fill="#3CBBE3"/>
<path d="M453.07 436.59C453.07 436.74 443.07 436.85 430.67 436.85C418.27 436.85 408.26 436.74 408.26 436.59C408.26 436.44 418.26 436.33 430.67 436.33C443.08 436.33 453.07 436.45 453.07 436.59Z" fill="#263238"/>
<path d="M449.32 472.62C449.32 472.77 360.07 472.88 250.01 472.88C139.95 472.88 50.6801 472.77 50.6801 472.62C50.6801 472.47 139.91 472.36 250.01 472.36C360.11 472.36 449.32 472.48 449.32 472.62Z" fill="#263238"/>
<path d="M337.372 246.372C339.326 250.787 341.61 255.049 344.205 259.12C348.879 266.589 365.058 294.29 369.732 298.032C374.405 301.773 379.064 297.706 381.859 297.396C384.655 297.085 388.396 303.933 388.396 305.486C388.403 306.405 388.072 307.295 387.465 307.985C387.642 308.35 387.743 308.747 387.76 309.153C387.778 309.558 387.711 309.963 387.566 310.341C387.42 310.72 387.198 311.065 386.914 311.354C386.629 311.643 386.288 311.871 385.912 312.023C384.466 312.748 382.852 313.07 381.238 312.954C381.238 312.954 376.269 314.522 374.391 313.59C372.512 312.659 364.748 304.554 362.559 301.137C360.37 297.721 341.706 285.579 337.417 277.474C333.128 269.369 328.07 257.553 327.138 256.931C326.206 256.31 337.372 246.372 337.372 246.372Z" fill="#FFBE9D"/>
<path d="M218.494 121.592C218.494 121.592 217.873 119.093 219.736 118.161C221.6 117.229 223.478 120.646 223.478 120.646C225.342 120.956 225.963 123.456 226.895 124.387C227.826 125.319 229.542 129.741 231.08 131.501C230.555 129.814 230.389 128.036 230.592 126.28C231.095 124.24 231.997 123.973 233.017 124.624C234.038 125.275 233.269 127.434 234.038 129.224C234.903 131.059 235.548 132.99 235.961 134.977C236.055 136.196 235.935 137.422 235.606 138.6V138.748C235.606 141.854 232.5 146.838 232.5 148.08C234.253 156.269 236.728 164.287 239.895 172.039C242.312 177.797 244.289 183.73 245.81 189.787L252.969 199.385L250.78 216.186C250.78 216.186 236.153 206.233 234.91 204.355C232.237 199.131 230.676 193.411 230.326 187.554C229.69 179.464 225.031 150.831 225.031 150.831C225.031 150.831 221.6 147.725 219.736 146.172C217.873 144.62 216.009 142.741 216.32 139.635C216.346 138.235 216.663 136.855 217.252 135.583C217.252 135.583 216.32 129.371 216.009 126.251C215.953 125.321 216.155 124.393 216.593 123.57C217.032 122.748 217.69 122.063 218.494 121.592Z" fill="#FFBE9D"/>
<path d="M223.348 121C223.348 121 221.766 122.479 225.345 131.752" stroke="#F9CBB4" stroke-linecap="round" stroke-linejoin="round"/>
<path d="M218.952 121.799C218.958 125.268 219.652 128.702 220.993 131.9" stroke="#F9CBB4" stroke-linecap="round" stroke-linejoin="round"/>
<path d="M316.179 272.52C321.422 279.505 325.47 287.311 328.159 295.621C332.729 309.597 332.152 342.948 333.291 348.375C334.429 353.803 337.86 373.518 337.86 373.518C342.771 379.275 346.98 385.595 350.402 392.345C355.815 403.171 366.094 437.97 367.795 443.383C369.495 448.796 370.93 452.509 375.189 457.36C379.449 462.211 387.169 471.055 387.45 472.475C387.731 473.894 372.335 472.475 372.335 472.475C370.907 472.25 369.597 471.546 368.623 470.478C367.144 468.762 367.765 467.062 365.768 465.627C363.772 464.192 359.498 464.148 358.936 461.353C358.554 458.52 358.455 455.657 358.64 452.804C358.64 450.231 346.956 426.272 341.528 420.578C336.101 414.884 324.417 396.338 320.143 389.52C315.868 382.702 312.437 373.828 311.875 369.835C311.313 365.842 296.479 324.209 296.479 324.209C296.479 324.209 293.344 349.884 295.34 363.002C297.337 376.121 296.184 395.229 295.045 406.055C293.906 416.881 290.771 443.709 294.187 450.542C296.228 454.624 300.472 464.518 291.909 465.952C289.868 466.292 284.781 469.088 281.364 470.789C277.948 472.489 263.617 472.504 262.537 472.267C261.458 472.031 260.26 471.129 261.058 470.271C261.857 469.413 265.332 467.697 267.048 466.278C268.764 464.858 278.732 454.579 279.59 453.159C280.447 451.74 279.309 436.625 278.451 432.912C277.593 429.2 270.183 402.964 269.577 392.123C268.971 381.282 270.716 374.449 270.716 370.456C270.716 366.463 264.445 349.632 262.168 333.955C259.89 318.279 262.168 305.722 262.73 296.301C263.292 286.88 270.124 272.061 270.124 272.061L314.611 270.922L316.179 272.52Z" fill="#FFBE9D" stroke="#263238" stroke-linecap="round" stroke-linejoin="round"/>
<path d="M362.899 448.442C365.473 448.22 369.288 450.497 371.196 451.754C372.335 453.746 373.684 455.61 375.219 457.315C379.493 462.166 387.198 471.01 387.479 472.43C387.76 473.85 372.364 472.43 372.364 472.43C370.936 472.206 369.627 471.502 368.652 470.434C367.173 468.718 367.795 467.017 365.798 465.583C363.801 464.148 359.527 464.104 358.965 461.308C358.584 458.476 358.485 455.612 358.669 452.76C358.579 452.073 358.395 451.401 358.122 450.764C358.719 450.072 359.45 449.509 360.271 449.11C361.093 448.711 361.987 448.483 362.899 448.442Z" fill="#BE9BC4" stroke="#263238" stroke-linejoin="round"/>
<path d="M368.652 470.433C367.173 468.718 367.795 467.017 365.798 465.583C363.801 464.148 359.527 464.104 358.965 461.308C358.693 459.846 358.57 458.359 358.595 456.871C366.212 453.381 371.448 460.022 377.186 465.213C380.211 468.002 383.636 470.325 387.346 472.105C387.406 472.206 387.451 472.316 387.479 472.43C387.76 473.909 372.364 472.43 372.364 472.43C370.936 472.206 369.627 471.502 368.652 470.433Z" fill="white" stroke="#263238" stroke-linecap="round" stroke-linejoin="round"/>
<path d="M372.365 472.43C370.936 472.206 369.627 471.502 368.652 470.434C367.173 468.718 367.795 467.017 365.798 465.583C364.097 464.37 360.725 464.192 359.424 462.373C359.128 460.894 359.424 459.105 362.899 459.105C368.815 459.105 373.252 464.74 376.535 467.698C379.24 469.798 382.172 471.589 385.276 473.037C381.09 473.244 372.365 472.43 372.365 472.43Z" fill="#6E6E6E" stroke="#263238" stroke-linecap="round" stroke-linejoin="round"/>
<path d="M267.137 466.159C268.838 464.68 278.821 454.461 279.678 453.041C279.678 453.041 286.629 447.569 293.773 449.314C293.89 449.71 294.039 450.095 294.217 450.468C296.257 454.55 300.502 464.444 291.939 465.878C289.898 466.219 284.81 469.014 281.394 470.715C277.978 472.415 263.646 472.43 262.567 472.194C261.487 471.957 260.289 471.055 261.088 470.197C261.887 469.339 265.421 467.579 267.137 466.159Z" fill="#BE9BC4" stroke="#263238" stroke-linejoin="round"/>
<path d="M262.567 472.149L262.301 472.06C266.56 471.262 272.653 467.357 279.693 462.477C285.091 458.735 292.752 459.386 297.086 460.17C297.158 461.609 296.657 463.018 295.692 464.088C294.728 465.158 293.378 465.802 291.939 465.878C289.898 466.219 284.81 469.014 281.394 470.715C277.978 472.415 263.706 472.43 262.567 472.149Z" fill="white" stroke="#263238" stroke-linecap="round" stroke-linejoin="round"/>
<path d="M264.549 472.268C265.889 471.815 267.264 471.473 268.66 471.247C274.768 470.36 282.296 462.373 290.297 462.373C294.231 462.373 295.725 462.876 296.213 463.394C295.722 464.096 295.084 464.684 294.343 465.115C293.603 465.547 292.777 465.812 291.924 465.893C289.883 466.233 284.796 469.029 281.379 470.729C278.628 472.105 268.852 472.371 264.549 472.268Z" fill="#6E6E6E" stroke="#263238" stroke-linecap="round" stroke-linejoin="round"/>
<path d="M279.397 439.361C279.226 437.158 278.94 434.967 278.54 432.794C277.682 429.082 270.272 402.845 269.666 392.005C269.059 381.164 270.805 374.331 270.805 370.338C270.805 366.345 264.534 349.514 262.256 333.837C259.979 318.16 262.256 305.604 262.818 296.183C263.38 286.762 270.213 271.943 270.213 271.943L314.7 270.804L316.179 272.52C321.422 279.505 325.47 287.311 328.159 295.621C332.729 309.597 332.152 342.948 333.291 348.375C334.429 353.803 337.861 373.518 337.861 373.518C342.771 379.275 346.98 385.595 350.402 392.345C354.395 400.316 360.991 421.243 364.896 433.918C361.509 432.543 356.451 432.129 352.65 438.843C348.953 431.537 344.397 423.551 341.558 420.578C336.145 414.869 324.446 396.338 320.172 389.52C315.898 382.702 312.467 373.828 311.905 369.835C311.343 365.842 296.509 324.209 296.509 324.209C296.509 324.209 293.374 349.884 295.37 363.002C297.367 376.121 296.213 395.229 295.074 406.055C294.364 412.887 292.856 426.05 292.678 436.565C290.394 436.048 288.025 436.03 285.732 436.512C283.44 436.994 281.279 437.966 279.397 439.361Z" fill="#263238" stroke="#263238" stroke-linecap="round" stroke-linejoin="round"/>
<path d="M276.38 211.823C276.38 211.823 287.576 214.323 293.181 214.323C298.787 214.323 310.293 210.892 321.488 215.802C332.684 220.712 336.737 242.867 336.737 243.798C336.737 244.73 323.426 253.766 323.426 253.766L318.442 246.298C318.442 246.298 315.025 257.493 315.647 261.856C316.268 266.219 321.562 269.251 320.305 272.12C319.048 274.99 316.578 274.93 312.837 273.599C309.095 272.268 290.43 274.856 282.651 274.856C274.872 274.856 269.34 275.478 267.403 272.046C265.466 268.615 266.161 265.199 266.161 259.283C266.161 253.367 260.57 234.141 255.897 228.225C253.397 224.925 250.345 222.082 246.875 219.824L254.965 199.607C254.965 199.607 264.608 207.076 269.592 208.629C272.022 209.295 274.318 210.376 276.38 211.823Z" fill="#BE9BC4" stroke="#263238" stroke-linejoin="round"/>
<path d="M259.875 200.628C259.875 200.628 251.785 226.761 250.232 226.14C248.679 225.518 244.627 221.481 244.006 218.05C243.385 214.619 248.99 202.18 250.543 199.385C252.096 196.59 252.096 195.022 253.974 195.954C256.075 197.334 258.05 198.898 259.875 200.628Z" fill="#BE9BC4" stroke="#263238" stroke-linejoin="round"/>
<path d="M338.304 242.275C338.304 242.275 340.789 246.949 340.789 249.123C340.789 251.297 331.767 258.455 326.783 259.076C321.799 259.697 321.178 254.417 321.178 254.417C321.178 254.417 332.078 246.017 333.32 244.774C334.562 243.532 334.562 242.009 338.304 242.275Z" fill="#BE9BC4" stroke="#263238" stroke-linejoin="round"/>
<path d="M311.225 272.505L295.355 265.347" stroke="#263238" stroke-linejoin="round"/>
<path d="M279.678 241.506C278.54 240.352 277.43 239.169 276.38 237.971" stroke="#263238" stroke-linejoin="round"/>
<path d="M305.619 261.93C297.492 256.746 289.819 250.883 282.681 244.405" stroke="#263238" stroke-linejoin="round"/>
<path d="M273.792 253.678C274.635 254.905 275.389 256.015 276.07 256.946" stroke="#263238" stroke-linejoin="round"/>
<path d="M255.527 225.208C255.527 225.208 264.563 239.761 271.396 250.099" stroke="#263238" stroke-linejoin="round"/>
<path d="M284.204 148.228C284.204 148.228 291.983 141.07 301.005 146.365C306.714 149.707 311.358 155.327 314.981 160.77C316.46 163.018 318.782 166.035 319.226 168.756C319.862 172.587 318.22 173.089 317.466 176.713C315.987 183.915 328.011 184.211 332.122 183.398C341.454 181.52 350.165 186.193 347.991 193.041C345.817 199.888 343.939 202.994 345.817 204.872C347.696 206.75 356.392 204.562 362.308 209.856C368.223 215.151 375.16 243.222 355.238 250.69C335.317 258.159 302.558 253.855 290.164 243.296C280.211 234.836 263.055 213.938 267.98 199.622C268.897 196.93 274.265 190.26 271.485 187.48C265.88 181.874 262.774 177.837 263.085 168.253C263.395 158.67 264.948 147.4 272.106 146.158C276.257 145.37 280.552 146.105 284.204 148.228Z" fill="#263238" stroke="#263238" stroke-linejoin="round"/>
<path d="M324.476 244.198C329.223 244.405 332.403 240.145 332.093 238.903" stroke="#808080" stroke-linejoin="round"/>
<path d="M281.069 197.3C284.929 201.116 289.44 206.543 291.17 212.43C294.483 223.596 288.286 233.52 296.553 242.63C304.821 251.74 320.143 250.897 337.106 248.827C354.07 246.756 344.96 225.666 329.711 225.666C314.463 225.666 311.964 236.832 319.359 242.216C319.764 242.503 320.184 242.77 320.616 243.014" stroke="#808080" stroke-linejoin="round"/>
<path d="M274.576 191.739C274.576 191.739 276.055 192.804 278.185 194.697" stroke="#808080" stroke-linejoin="round"/>
<path d="M355.697 224.735C358.35 225.32 360.782 226.648 362.707 228.565C372.231 237.247 362.293 246.756 354.026 247.584" stroke="#808080" stroke-linejoin="round"/>
<path d="M272.417 179.745C275.787 182.218 279.429 184.297 283.272 185.942C301.892 194.224 316.785 192.981 319.684 202.491C322.583 212.001 323.396 219.455 335.405 224.01C342.002 226.509 346.719 225.016 351.215 224.601" stroke="#808080" stroke-linejoin="round"/>
<path d="M265.066 169.392C265.066 169.392 264.918 172.217 268.512 176.21" stroke="#808080" stroke-linejoin="round"/>
<path d="M333.749 197.906C333.749 197.906 336.707 190.512 324.225 186.74C311.742 182.969 300.65 190.881 292.782 174.746" stroke="#808080" stroke-linejoin="round"/>
</svg>
