<svg width="258" height="32" viewBox="0 0 258 32" fill="none" xmlns="http://www.w3.org/2000/svg">
<path d="M7.686 16.288C6.534 16.288 5.514 16.078 4.626 15.658C3.738 15.226 3.042 14.632 2.538 13.876C2.046 13.12 1.8 12.256 1.8 11.284V2.878C1.8 2.602 1.89 2.38 2.07 2.212C2.25 2.032 2.472 1.942 2.736 1.942C3.012 1.942 3.234 2.032 3.402 2.212C3.582 2.38 3.672 2.602 3.672 2.878V11.284C3.672 11.932 3.84 12.508 4.176 13.012C4.524 13.504 4.998 13.894 5.598 14.182C6.21 14.458 6.906 14.596 7.686 14.596C8.442 14.596 9.108 14.458 9.684 14.182C10.272 13.894 10.728 13.504 11.052 13.012C11.388 12.508 11.556 11.932 11.556 11.284V2.878C11.556 2.602 11.646 2.38 11.826 2.212C12.006 2.032 12.228 1.942 12.492 1.942C12.768 1.942 12.99 2.032 13.158 2.212C13.326 2.38 13.41 2.602 13.41 2.878V11.284C13.41 12.256 13.164 13.12 12.672 13.876C12.192 14.632 11.52 15.226 10.656 15.658C9.792 16.078 8.802 16.288 7.686 16.288ZM17.9411 16C17.6771 16 17.4551 15.91 17.2751 15.73C17.0951 15.55 17.0051 15.328 17.0051 15.064V2.878C17.0051 2.602 17.0951 2.38 17.2751 2.212C17.4551 2.032 17.6771 1.942 17.9411 1.942H21.1811C22.0811 1.942 22.8791 2.134 23.5751 2.518C24.2711 2.89 24.8111 3.406 25.1951 4.066C25.5911 4.726 25.7891 5.494 25.7891 6.37C25.7891 7.234 25.5731 7.996 25.1411 8.656C24.7091 9.304 24.1211 9.796 23.3771 10.132L26.1311 14.56C26.3471 14.908 26.3771 15.238 26.2211 15.55C26.0651 15.85 25.7951 16 25.4111 16C25.0631 16 24.7931 15.85 24.6011 15.55L21.5051 10.582C21.3971 10.582 21.2891 10.582 21.1811 10.582H18.8771V15.064C18.8771 15.328 18.7871 15.55 18.6071 15.73C18.4391 15.91 18.2171 16 17.9411 16ZM18.8771 8.854H21.1811C21.9971 8.854 22.6691 8.626 23.1971 8.17C23.7251 7.702 23.9891 7.102 23.9891 6.37C23.9891 5.578 23.7251 4.93 23.1971 4.426C22.6691 3.922 21.9971 3.67 21.1811 3.67H18.8771V8.854ZM29.2961 16C29.0321 16 28.8101 15.91 28.6301 15.73C28.4621 15.55 28.3781 15.328 28.3781 15.064V2.878C28.3781 2.614 28.4681 2.392 28.6481 2.212C28.8281 2.032 29.0441 1.942 29.2961 1.942C29.5601 1.942 29.7821 2.032 29.9621 2.212C30.1421 2.392 30.2321 2.614 30.2321 2.878V14.128H36.7481C37.0121 14.128 37.2341 14.218 37.4141 14.398C37.5941 14.578 37.6841 14.8 37.6841 15.064C37.6841 15.328 37.5941 15.55 37.4141 15.73C37.2341 15.91 37.0121 16 36.7481 16H29.2961ZM49.6644 16.18C48.8964 16.18 48.1644 16.06 47.4684 15.82C46.7724 15.58 46.1664 15.244 45.6504 14.812C45.1344 14.38 44.7564 13.882 44.5164 13.318C44.3964 13.066 44.3964 12.832 44.5164 12.616C44.6484 12.4 44.8644 12.262 45.1644 12.202C45.3804 12.154 45.5904 12.19 45.7944 12.31C46.0104 12.418 46.1724 12.586 46.2804 12.814C46.4244 13.114 46.6584 13.39 46.9824 13.642C47.3184 13.894 47.7204 14.098 48.1884 14.254C48.6564 14.41 49.1484 14.488 49.6644 14.488C50.2404 14.488 50.7684 14.398 51.2484 14.218C51.7404 14.038 52.1364 13.78 52.4364 13.444C52.7364 13.096 52.8864 12.67 52.8864 12.166C52.8864 11.53 52.6344 10.96 52.1304 10.456C51.6384 9.952 50.8224 9.64 49.6824 9.52C48.1944 9.376 47.0244 8.938 46.1724 8.206C45.3204 7.474 44.8944 6.568 44.8944 5.488C44.8944 4.696 45.1164 4.024 45.5604 3.472C46.0044 2.92 46.6044 2.5 47.3604 2.212C48.1284 1.924 48.9804 1.78 49.9164 1.78C51.0084 1.78 51.9024 2.002 52.5984 2.446C53.2944 2.89 53.8704 3.478 54.3264 4.21C54.4944 4.474 54.5604 4.726 54.5244 4.966C54.5004 5.194 54.3864 5.374 54.1824 5.506C53.9544 5.65 53.7084 5.68 53.4444 5.596C53.1804 5.512 52.9824 5.356 52.8504 5.128C52.5504 4.612 52.1604 4.21 51.6804 3.922C51.2124 3.634 50.6064 3.484 49.8624 3.472C48.9744 3.46 48.2304 3.628 47.6304 3.976C47.0304 4.312 46.7304 4.834 46.7304 5.542C46.7304 5.902 46.8204 6.25 47.0004 6.586C47.1924 6.91 47.5344 7.192 48.0264 7.432C48.5304 7.672 49.2504 7.84 50.1864 7.936C51.6144 8.08 52.7244 8.518 53.5164 9.25C54.3204 9.97 54.7224 10.924 54.7224 12.112C54.7224 12.796 54.5784 13.39 54.2904 13.894C54.0144 14.398 53.6364 14.824 53.1564 15.172C52.6884 15.508 52.1484 15.76 51.5364 15.928C50.9364 16.096 50.3124 16.18 49.6644 16.18ZM58.529 16C58.265 16 58.043 15.91 57.863 15.73C57.683 15.55 57.593 15.328 57.593 15.064V2.878C57.593 2.602 57.683 2.38 57.863 2.212C58.043 2.032 58.265 1.942 58.529 1.942C58.805 1.942 59.027 2.032 59.195 2.212C59.375 2.38 59.465 2.602 59.465 2.878V8.044H67.817V2.878C67.817 2.602 67.907 2.38 68.087 2.212C68.267 2.032 68.489 1.942 68.753 1.942C69.029 1.942 69.251 2.032 69.419 2.212C69.587 2.38 69.671 2.602 69.671 2.878V15.064C69.671 15.328 69.587 15.55 69.419 15.73C69.251 15.91 69.029 16 68.753 16C68.489 16 68.267 15.91 68.087 15.73C67.907 15.55 67.817 15.328 67.817 15.064V9.7H59.465V15.064C59.465 15.328 59.375 15.55 59.195 15.73C59.027 15.91 58.805 16 58.529 16ZM79.7707 16.18C78.7147 16.18 77.7487 16.006 76.8727 15.658C75.9967 15.298 75.2407 14.8 74.6047 14.164C73.9807 13.516 73.4947 12.754 73.1467 11.878C72.7987 10.99 72.6247 10.018 72.6247 8.962C72.6247 7.906 72.7987 6.94 73.1467 6.064C73.4947 5.188 73.9807 4.432 74.6047 3.796C75.2407 3.148 75.9967 2.65 76.8727 2.302C77.7487 1.942 78.7147 1.762 79.7707 1.762C80.8267 1.762 81.7867 1.942 82.6507 2.302C83.5267 2.65 84.2827 3.148 84.9187 3.796C85.5547 4.432 86.0467 5.188 86.3947 6.064C86.7427 6.94 86.9167 7.906 86.9167 8.962C86.9167 10.018 86.7427 10.99 86.3947 11.878C86.0467 12.754 85.5547 13.516 84.9187 14.164C84.2827 14.8 83.5267 15.298 82.6507 15.658C81.7867 16.006 80.8267 16.18 79.7707 16.18ZM79.7707 14.488C80.8147 14.488 81.7387 14.248 82.5427 13.768C83.3467 13.276 83.9767 12.616 84.4327 11.788C84.8887 10.948 85.1167 10.006 85.1167 8.962C85.1167 7.918 84.8887 6.982 84.4327 6.154C83.9767 5.314 83.3467 4.654 82.5427 4.174C81.7387 3.694 80.8147 3.454 79.7707 3.454C78.7267 3.454 77.8027 3.694 76.9987 4.174C76.1947 4.654 75.5647 5.314 75.1087 6.154C74.6527 6.982 74.4247 7.918 74.4247 8.962C74.4247 10.006 74.6527 10.948 75.1087 11.788C75.5647 12.616 76.1947 13.276 76.9987 13.768C77.8027 14.248 78.7267 14.488 79.7707 14.488ZM90.7848 16C90.5208 16 90.2988 15.91 90.1188 15.73C89.9388 15.55 89.8488 15.328 89.8488 15.064V2.878C89.8488 2.602 89.9388 2.38 90.1188 2.212C90.2988 2.032 90.5208 1.942 90.7848 1.942H94.0248C94.9248 1.942 95.7228 2.134 96.4188 2.518C97.1148 2.89 97.6548 3.406 98.0388 4.066C98.4348 4.726 98.6328 5.494 98.6328 6.37C98.6328 7.234 98.4168 7.996 97.9848 8.656C97.5528 9.304 96.9648 9.796 96.2208 10.132L98.9748 14.56C99.1908 14.908 99.2208 15.238 99.0648 15.55C98.9088 15.85 98.6388 16 98.2548 16C97.9068 16 97.6368 15.85 97.4448 15.55L94.3488 10.582C94.2408 10.582 94.1328 10.582 94.0248 10.582H91.7208V15.064C91.7208 15.328 91.6308 15.55 91.4508 15.73C91.2828 15.91 91.0608 16 90.7848 16ZM91.7208 8.854H94.0248C94.8408 8.854 95.5128 8.626 96.0408 8.17C96.5688 7.702 96.8328 7.102 96.8328 6.37C96.8328 5.578 96.5688 4.93 96.0408 4.426C95.5128 3.922 94.8408 3.67 94.0248 3.67H91.7208V8.854ZM105.38 16C105.116 16 104.894 15.91 104.714 15.73C104.534 15.55 104.444 15.328 104.444 15.064V3.67H100.556C100.304 3.67 100.094 3.592 99.9259 3.436C99.7699 3.268 99.6919 3.058 99.6919 2.806C99.6919 2.554 99.7699 2.35 99.9259 2.194C100.094 2.026 100.304 1.942 100.556 1.942H110.186C110.438 1.942 110.642 2.026 110.798 2.194C110.966 2.35 111.05 2.554 111.05 2.806C111.05 3.058 110.966 3.268 110.798 3.436C110.642 3.592 110.438 3.67 110.186 3.67H106.316V15.064C106.316 15.328 106.226 15.55 106.046 15.73C105.866 15.91 105.644 16 105.38 16ZM114.058 16C113.794 16 113.572 15.91 113.392 15.73C113.212 15.55 113.122 15.328 113.122 15.064V2.878C113.122 2.602 113.212 2.38 113.392 2.212C113.572 2.032 113.794 1.942 114.058 1.942H122.194C122.47 1.942 122.692 2.026 122.86 2.194C123.028 2.35 123.112 2.56 123.112 2.824C123.112 3.076 123.028 3.28 122.86 3.436C122.692 3.592 122.47 3.67 122.194 3.67H114.994V8.044H120.16C120.436 8.044 120.658 8.128 120.826 8.296C120.994 8.452 121.078 8.656 121.078 8.908C121.078 9.16 120.994 9.37 120.826 9.538C120.658 9.694 120.436 9.772 120.16 9.772H114.994V14.272H122.194C122.47 14.272 122.692 14.35 122.86 14.506C123.028 14.662 123.112 14.866 123.112 15.118C123.112 15.382 123.028 15.598 122.86 15.766C122.692 15.922 122.47 16 122.194 16H114.058ZM126.644 16C126.38 16 126.158 15.91 125.978 15.73C125.81 15.55 125.726 15.328 125.726 15.064V2.878C125.726 2.602 125.81 2.38 125.978 2.212C126.158 2.032 126.38 1.942 126.644 1.942C126.932 1.942 127.172 2.056 127.364 2.284L135.212 12.724V2.878C135.212 2.602 135.302 2.38 135.482 2.212C135.662 2.032 135.884 1.942 136.148 1.942C136.424 1.942 136.646 2.032 136.814 2.212C136.982 2.38 137.066 2.602 137.066 2.878V15.064C137.066 15.328 136.982 15.55 136.814 15.73C136.646 15.91 136.424 16 136.148 16C136.028 16 135.896 15.976 135.752 15.928C135.62 15.868 135.512 15.784 135.428 15.676L127.58 5.236V15.064C127.58 15.328 127.49 15.55 127.31 15.73C127.142 15.91 126.92 16 126.644 16ZM141.603 16C141.339 16 141.117 15.91 140.937 15.73C140.757 15.55 140.667 15.328 140.667 15.064V2.878C140.667 2.602 140.757 2.38 140.937 2.212C141.117 2.032 141.339 1.942 141.603 1.942H149.739C150.015 1.942 150.237 2.026 150.405 2.194C150.573 2.35 150.657 2.56 150.657 2.824C150.657 3.076 150.573 3.28 150.405 3.436C150.237 3.592 150.015 3.67 149.739 3.67H142.539V8.044H147.705C147.981 8.044 148.203 8.128 148.371 8.296C148.539 8.452 148.623 8.656 148.623 8.908C148.623 9.16 148.539 9.37 148.371 9.538C148.203 9.694 147.981 9.772 147.705 9.772H142.539V14.272H149.739C150.015 14.272 150.237 14.35 150.405 14.506C150.573 14.662 150.657 14.866 150.657 15.118C150.657 15.382 150.573 15.598 150.405 15.766C150.237 15.922 150.015 16 149.739 16H141.603ZM154.207 16C153.943 16 153.721 15.91 153.541 15.73C153.361 15.55 153.271 15.328 153.271 15.064V2.878C153.271 2.602 153.361 2.38 153.541 2.212C153.721 2.032 153.943 1.942 154.207 1.942H157.447C158.347 1.942 159.145 2.134 159.841 2.518C160.537 2.89 161.077 3.406 161.461 4.066C161.857 4.726 162.055 5.494 162.055 6.37C162.055 7.234 161.839 7.996 161.407 8.656C160.975 9.304 160.387 9.796 159.643 10.132L162.397 14.56C162.613 14.908 162.643 15.238 162.487 15.55C162.331 15.85 162.061 16 161.677 16C161.329 16 161.059 15.85 160.867 15.55L157.771 10.582C157.663 10.582 157.555 10.582 157.447 10.582H155.143V15.064C155.143 15.328 155.053 15.55 154.873 15.73C154.705 15.91 154.483 16 154.207 16ZM155.143 8.854H157.447C158.263 8.854 158.935 8.626 159.463 8.17C159.991 7.702 160.255 7.102 160.255 6.37C160.255 5.578 159.991 4.93 159.463 4.426C158.935 3.922 158.263 3.67 157.447 3.67H155.143V8.854Z" fill="black"/>
<path d="M166.65 29.04C166.13 29.04 165.663 28.92 165.25 28.68C164.837 28.4333 164.51 28.1 164.27 27.68C164.03 27.26 163.907 26.7867 163.9 26.26V21.7C163.9 21.5467 163.947 21.4233 164.04 21.33C164.14 21.2367 164.263 21.19 164.41 21.19C164.563 21.19 164.687 21.2367 164.78 21.33C164.873 21.4233 164.92 21.5467 164.92 21.7V24.4C165.153 24.12 165.433 23.9 165.76 23.74C166.093 23.5733 166.457 23.49 166.85 23.49C167.337 23.49 167.773 23.6133 168.16 23.86C168.547 24.1 168.85 24.43 169.07 24.85C169.297 25.2633 169.41 25.7333 169.41 26.26C169.41 26.7867 169.287 27.26 169.04 27.68C168.8 28.1 168.473 28.4333 168.06 28.68C167.647 28.92 167.177 29.04 166.65 29.04ZM166.65 28.14C166.99 28.14 167.293 28.06 167.56 27.9C167.827 27.7333 168.037 27.5067 168.19 27.22C168.35 26.9333 168.43 26.6133 168.43 26.26C168.43 25.9 168.35 25.58 168.19 25.3C168.037 25.02 167.827 24.8 167.56 24.64C167.293 24.4733 166.99 24.39 166.65 24.39C166.317 24.39 166.013 24.4733 165.74 24.64C165.473 24.8 165.263 25.02 165.11 25.3C164.957 25.58 164.88 25.9 164.88 26.26C164.88 26.6133 164.957 26.9333 165.11 27.22C165.263 27.5067 165.473 27.7333 165.74 27.9C166.013 28.06 166.317 28.14 166.65 28.14ZM171.609 31.4C171.542 31.4 171.462 31.38 171.369 31.34C171.075 31.2067 170.995 30.9967 171.129 30.71L172.129 28.46L169.879 24.19C169.812 24.0633 169.802 23.9433 169.849 23.83C169.902 23.71 169.992 23.6233 170.119 23.57C170.245 23.5167 170.365 23.5133 170.479 23.56C170.592 23.6 170.679 23.6833 170.739 23.81L172.569 27.45L174.179 23.82C174.312 23.54 174.522 23.46 174.809 23.58C175.109 23.7067 175.192 23.9167 175.059 24.21L171.999 31.09C171.919 31.2967 171.789 31.4 171.609 31.4ZM178.739 29C178.552 29 178.409 28.92 178.309 28.76C178.209 28.6 178.199 28.43 178.279 28.25L181.089 21.54C181.189 21.3067 181.352 21.19 181.579 21.19C181.819 21.19 181.982 21.3067 182.069 21.54L184.889 28.27C184.962 28.4567 184.949 28.6267 184.849 28.78C184.755 28.9267 184.612 29 184.419 29C184.319 29 184.222 28.9733 184.129 28.92C184.042 28.86 183.979 28.78 183.939 28.68L183.379 27.28H179.789L179.219 28.68C179.172 28.7867 179.102 28.8667 179.009 28.92C178.922 28.9733 178.832 29 178.739 29ZM180.139 26.42H183.029L181.599 22.86L180.139 26.42ZM189.385 29.1C188.845 29.1 188.338 29 187.865 28.8C187.398 28.5933 186.988 28.31 186.635 27.95C186.288 27.5833 186.015 27.1567 185.815 26.67C185.621 26.1833 185.525 25.6567 185.525 25.09C185.525 24.53 185.621 24.01 185.815 23.53C186.015 23.0433 186.288 22.62 186.635 22.26C186.988 21.8933 187.398 21.6067 187.865 21.4C188.331 21.1933 188.838 21.09 189.385 21.09C189.898 21.09 190.338 21.1567 190.705 21.29C191.078 21.4233 191.451 21.6433 191.825 21.95C191.905 22.0167 191.958 22.08 191.985 22.14C192.011 22.2 192.025 22.2733 192.025 22.36C192.025 22.4867 191.978 22.5933 191.885 22.68C191.798 22.76 191.691 22.8067 191.565 22.82C191.438 22.8267 191.315 22.7833 191.195 22.69C190.948 22.4767 190.691 22.3133 190.425 22.2C190.165 22.0867 189.818 22.03 189.385 22.03C188.991 22.03 188.621 22.11 188.275 22.27C187.928 22.43 187.621 22.65 187.355 22.93C187.095 23.21 186.891 23.5367 186.745 23.91C186.598 24.2767 186.525 24.67 186.525 25.09C186.525 25.5167 186.598 25.9167 186.745 26.29C186.891 26.6567 187.095 26.98 187.355 27.26C187.621 27.54 187.928 27.76 188.275 27.92C188.621 28.0733 188.991 28.15 189.385 28.15C189.725 28.15 190.045 28.0933 190.345 27.98C190.651 27.86 190.945 27.6967 191.225 27.49C191.345 27.4033 191.461 27.3667 191.575 27.38C191.695 27.3867 191.795 27.4333 191.875 27.52C191.955 27.6 191.995 27.7133 191.995 27.86C191.995 28 191.941 28.1233 191.835 28.23C191.115 28.81 190.298 29.1 189.385 29.1ZM194.178 29C194.032 29 193.908 28.95 193.808 28.85C193.708 28.75 193.658 28.6267 193.658 28.48V21.71C193.658 21.5567 193.708 21.4333 193.808 21.34C193.908 21.24 194.032 21.19 194.178 21.19C194.378 21.19 194.532 21.2833 194.638 21.47L197.608 27.42L200.498 21.47C200.605 21.2833 200.758 21.19 200.958 21.19C201.105 21.19 201.228 21.24 201.328 21.34C201.428 21.4333 201.478 21.5567 201.478 21.71V28.48C201.478 28.6267 201.425 28.75 201.318 28.85C201.218 28.95 201.098 29 200.958 29C200.812 29 200.688 28.95 200.588 28.85C200.488 28.75 200.438 28.6267 200.438 28.48V23.51L198.018 28.44C197.905 28.6133 197.755 28.7 197.568 28.7C197.348 28.7 197.188 28.5967 197.088 28.39L194.698 23.6V28.48C194.698 28.6267 194.648 28.75 194.548 28.85C194.448 28.95 194.325 29 194.178 29ZM208.262 29.1C207.795 29.1 207.379 29 207.012 28.8C206.652 28.5933 206.369 28.31 206.162 27.95C205.962 27.5833 205.862 27.1667 205.862 26.7C205.862 26.5467 205.912 26.4233 206.012 26.33C206.112 26.23 206.235 26.18 206.382 26.18C206.535 26.18 206.659 26.23 206.752 26.33C206.852 26.4233 206.902 26.5467 206.902 26.7C206.902 27.1267 207.029 27.4767 207.282 27.75C207.535 28.0233 207.862 28.16 208.262 28.16C208.662 28.16 208.989 28.0233 209.242 27.75C209.502 27.4767 209.632 27.1267 209.632 26.7V21.71C209.632 21.5567 209.679 21.4333 209.772 21.34C209.872 21.24 209.995 21.19 210.142 21.19C210.295 21.19 210.422 21.24 210.522 21.34C210.622 21.4333 210.672 21.5567 210.672 21.71V26.7C210.672 27.1667 210.569 27.5833 210.362 27.95C210.155 28.31 209.872 28.5933 209.512 28.8C209.152 29 208.735 29.1 208.262 29.1ZM214.852 29.04C214.365 29.04 213.929 28.92 213.542 28.68C213.155 28.4333 212.849 28.1033 212.622 27.69C212.402 27.27 212.292 26.7967 212.292 26.27C212.292 25.7433 212.412 25.27 212.652 24.85C212.899 24.43 213.229 24.1 213.642 23.86C214.062 23.6133 214.532 23.49 215.052 23.49C215.572 23.49 216.039 23.6133 216.452 23.86C216.865 24.1 217.192 24.43 217.432 24.85C217.679 25.27 217.802 25.7433 217.802 26.27V28.5C217.802 28.6467 217.752 28.77 217.652 28.87C217.559 28.9633 217.439 29.01 217.292 29.01C217.145 29.01 217.022 28.9633 216.922 28.87C216.829 28.77 216.782 28.6467 216.782 28.5V28.13C216.549 28.41 216.265 28.6333 215.932 28.8C215.605 28.96 215.245 29.04 214.852 29.04ZM215.052 28.14C215.392 28.14 215.695 28.06 215.962 27.9C216.229 27.7333 216.439 27.51 216.592 27.23C216.745 26.9433 216.822 26.6233 216.822 26.27C216.822 25.91 216.745 25.59 216.592 25.31C216.439 25.0233 216.229 24.8 215.962 24.64C215.695 24.4733 215.392 24.39 215.052 24.39C214.719 24.39 214.415 24.4733 214.142 24.64C213.875 24.8 213.662 25.0233 213.502 25.31C213.349 25.59 213.272 25.91 213.272 26.27C213.272 26.6233 213.349 26.9433 213.502 27.23C213.662 27.51 213.875 27.7333 214.142 27.9C214.415 28.06 214.719 28.14 215.052 28.14ZM220.867 28.99C220.661 28.99 220.501 28.88 220.387 28.66L218.267 24.19C218.214 24.0767 218.207 23.9667 218.247 23.86C218.294 23.7467 218.381 23.66 218.507 23.6C218.621 23.54 218.734 23.53 218.847 23.57C218.967 23.61 219.057 23.6867 219.117 23.8L220.857 27.55L222.577 23.8C222.637 23.6867 222.727 23.61 222.847 23.57C222.974 23.53 223.101 23.54 223.227 23.6C223.347 23.6533 223.427 23.7367 223.467 23.85C223.507 23.9633 223.501 24.0767 223.447 24.19L221.327 28.66C221.227 28.88 221.074 28.99 220.867 28.99ZM226.87 29.04C226.317 29.04 225.824 28.9233 225.39 28.69C224.964 28.45 224.627 28.1233 224.38 27.71C224.14 27.29 224.02 26.81 224.02 26.27C224.02 25.7233 224.134 25.2433 224.36 24.83C224.594 24.41 224.914 24.0833 225.32 23.85C225.727 23.61 226.194 23.49 226.72 23.49C227.24 23.49 227.687 23.6067 228.06 23.84C228.434 24.0667 228.717 24.3833 228.91 24.79C229.11 25.19 229.21 25.6533 229.21 26.18C229.21 26.3067 229.167 26.4133 229.08 26.5C228.994 26.58 228.884 26.62 228.75 26.62H224.95C225.024 27.08 225.234 27.4567 225.58 27.75C225.934 28.0367 226.364 28.18 226.87 28.18C227.077 28.18 227.287 28.1433 227.5 28.07C227.72 27.99 227.897 27.9 228.03 27.8C228.13 27.7267 228.237 27.69 228.35 27.69C228.47 27.6833 228.574 27.7167 228.66 27.79C228.774 27.89 228.834 28 228.84 28.12C228.847 28.24 228.794 28.3433 228.68 28.43C228.454 28.61 228.17 28.7567 227.83 28.87C227.497 28.9833 227.177 29.04 226.87 29.04ZM226.72 24.35C226.227 24.35 225.83 24.4867 225.53 24.76C225.23 25.0333 225.04 25.3867 224.96 25.82H228.29C228.23 25.3933 228.067 25.0433 227.8 24.77C227.534 24.49 227.174 24.35 226.72 24.35ZM231.011 29C230.678 29 230.511 28.8333 230.511 28.5V24.03C230.511 23.6967 230.678 23.53 231.011 23.53C231.345 23.53 231.511 23.6967 231.511 24.03V24.22C231.711 23.9867 231.955 23.8033 232.241 23.67C232.535 23.5367 232.851 23.47 233.191 23.47C233.591 23.47 233.888 23.5367 234.081 23.67C234.281 23.7967 234.358 23.95 234.311 24.13C234.278 24.27 234.211 24.3633 234.111 24.41C234.011 24.45 233.895 24.4567 233.761 24.43C233.335 24.3433 232.951 24.3367 232.611 24.41C232.271 24.4833 232.001 24.62 231.801 24.82C231.608 25.02 231.511 25.2733 231.511 25.58V28.5C231.511 28.8333 231.345 29 231.011 29ZM235.985 29C235.838 29 235.715 28.9533 235.615 28.86C235.521 28.76 235.475 28.6367 235.475 28.49V24.04C235.475 23.8867 235.521 23.7633 235.615 23.67C235.715 23.5767 235.838 23.53 235.985 23.53C236.138 23.53 236.261 23.5767 236.355 23.67C236.448 23.7633 236.495 23.8867 236.495 24.04V28.49C236.495 28.6367 236.448 28.76 236.355 28.86C236.261 28.9533 236.138 29 235.985 29ZM235.985 22.64C235.805 22.64 235.648 22.5767 235.515 22.45C235.388 22.3167 235.325 22.16 235.325 21.98C235.325 21.8 235.388 21.6467 235.515 21.52C235.648 21.3867 235.805 21.32 235.985 21.32C236.165 21.32 236.318 21.3867 236.445 21.52C236.578 21.6467 236.645 21.8 236.645 21.98C236.645 22.16 236.578 22.3167 236.445 22.45C236.318 22.5767 236.165 22.64 235.985 22.64ZM240.672 29.04C240.186 29.04 239.749 28.92 239.362 28.68C238.976 28.4333 238.669 28.1033 238.442 27.69C238.222 27.27 238.112 26.7967 238.112 26.27C238.112 25.7433 238.232 25.27 238.472 24.85C238.719 24.43 239.049 24.1 239.462 23.86C239.882 23.6133 240.352 23.49 240.872 23.49C241.392 23.49 241.859 23.6133 242.272 23.86C242.686 24.1 243.012 24.43 243.252 24.85C243.499 25.27 243.622 25.7433 243.622 26.27V28.5C243.622 28.6467 243.572 28.77 243.472 28.87C243.379 28.9633 243.259 29.01 243.112 29.01C242.966 29.01 242.842 28.9633 242.742 28.87C242.649 28.77 242.602 28.6467 242.602 28.5V28.13C242.369 28.41 242.086 28.6333 241.752 28.8C241.426 28.96 241.066 29.04 240.672 29.04ZM240.872 28.14C241.212 28.14 241.516 28.06 241.782 27.9C242.049 27.7333 242.259 27.51 242.412 27.23C242.566 26.9433 242.642 26.6233 242.642 26.27C242.642 25.91 242.566 25.59 242.412 25.31C242.259 25.0233 242.049 24.8 241.782 24.64C241.516 24.4733 241.212 24.39 240.872 24.39C240.539 24.39 240.236 24.4733 239.962 24.64C239.696 24.8 239.482 25.0233 239.322 25.31C239.169 25.59 239.092 25.91 239.092 26.27C239.092 26.6233 239.169 26.9433 239.322 27.23C239.482 27.51 239.696 27.7333 239.962 27.9C240.236 28.06 240.539 28.14 240.872 28.14ZM245.65 29.01C245.504 29.01 245.38 28.9633 245.28 28.87C245.187 28.77 245.14 28.6467 245.14 28.5V24.04C245.14 23.8867 245.187 23.7633 245.28 23.67C245.38 23.5767 245.504 23.53 245.65 23.53C245.804 23.53 245.927 23.5767 246.02 23.67C246.114 23.7633 246.16 23.8867 246.16 24.04V24.15C246.367 23.9433 246.617 23.78 246.91 23.66C247.204 23.54 247.52 23.48 247.86 23.48C248.32 23.48 248.73 23.58 249.09 23.78C249.457 23.9733 249.744 24.26 249.95 24.64C250.164 25.02 250.27 25.4867 250.27 26.04V28.5C250.27 28.6467 250.22 28.77 250.12 28.87C250.027 28.9633 249.907 29.01 249.76 29.01C249.614 29.01 249.49 28.9633 249.39 28.87C249.297 28.77 249.25 28.6467 249.25 28.5V26.04C249.25 25.4733 249.097 25.06 248.79 24.8C248.49 24.5333 248.114 24.4 247.66 24.4C247.38 24.4 247.127 24.4567 246.9 24.57C246.674 24.6833 246.494 24.8367 246.36 25.03C246.227 25.2167 246.16 25.4333 246.16 25.68V28.5C246.16 28.6467 246.114 28.77 246.02 28.87C245.927 28.9633 245.804 29.01 245.65 29.01ZM254.237 29.04C253.75 29.04 253.313 28.92 252.927 28.68C252.54 28.4333 252.233 28.1033 252.007 27.69C251.787 27.27 251.677 26.7967 251.677 26.27C251.677 25.7433 251.797 25.27 252.037 24.85C252.283 24.43 252.613 24.1 253.027 23.86C253.447 23.6133 253.917 23.49 254.437 23.49C254.957 23.49 255.423 23.6133 255.837 23.86C256.25 24.1 256.577 24.43 256.817 24.85C257.063 25.27 257.187 25.7433 257.187 26.27V28.5C257.187 28.6467 257.137 28.77 257.037 28.87C256.943 28.9633 256.823 29.01 256.677 29.01C256.53 29.01 256.407 28.9633 256.307 28.87C256.213 28.77 256.167 28.6467 256.167 28.5V28.13C255.933 28.41 255.65 28.6333 255.317 28.8C254.99 28.96 254.63 29.04 254.237 29.04ZM254.437 28.14C254.777 28.14 255.08 28.06 255.347 27.9C255.613 27.7333 255.823 27.51 255.977 27.23C256.13 26.9433 256.207 26.6233 256.207 26.27C256.207 25.91 256.13 25.59 255.977 25.31C255.823 25.0233 255.613 24.8 255.347 24.64C255.08 24.4733 254.777 24.39 254.437 24.39C254.103 24.39 253.8 24.4733 253.527 24.64C253.26 24.8 253.047 25.0233 252.887 25.31C252.733 25.59 252.657 25.91 252.657 26.27C252.657 26.6233 252.733 26.9433 252.887 27.23C253.047 27.51 253.26 27.7333 253.527 27.9C253.8 28.06 254.103 28.14 254.437 28.14Z" fill="#0D91CF"/>
</svg>
