<svg id="logo" xmlns="http://www.w3.org/2000/svg" viewBox="0 0 513.12 531.29"><defs><style>.cls-1{fill:#0D91CF;fill-rule:evenodd;}</style></defs><title>logoCapitulo</title><path class="cls-1" d="M401.88,185.13l31.62,31.62L404.27,246V196.83a40.1,40.1,0,0,0-2.39-11.7m-348.26-22L216.75,0,378.59,161.84a31.83,31.83,0,0,0-10.4-1.77c-17,.05-28.38,8.09-35.94,18.17-4-10.52-14.52-18.8-30.92-18.2S280,167.3,269.06,176.57a65.33,65.33,0,0,0-1.21-14.11l-28.08-.06V271.27h33.59v-66c0-10.38,6.12-18.05,16.7-17.95s15.31,7.3,15.31,17.18v66.82h33.19V203.69c0-9.45,6.6-16.41,16.91-16.41s15.88,6.32,15.88,15.7v68.29H379L216.75,433.5l-160-160c13.55,2.24,29.15-2.12,39.41-13.54.1,3.56.6,7.9,2.86,11.36h30.24c-2.21-14-2.5-28.61-2-43,0-14.13.8-28.24-2.68-39.67-4.38-14.41-13.6-25.18-34.64-28C80.81,159.53,66.36,159.55,53.62,163.13ZM0,216.75l39.37-39.37,3.88,13.34c32.47-12.77,48.92-9.86,50.05,8-44.71.59-67,17.21-63.76,47.53Zm226.06,52.11c-19.32,6.65-45.58,7.26-62.89-3.13-33.79-20.29-32.95-70.05-3.58-93.58,15-12.07,38.35-17.24,66.76-8l-4.82,24.06c-23.87-6.52-49,.46-48.46,29.31.51,26.69,24.11,35.29,48.78,26.53ZM94.21,220c-9.36-.1-19.15.53-25.71,5.77C51.8,239.13,72.34,261,88.88,244.84a16.21,16.21,0,0,0,5.33-12Z"/><path class="cls-1" d="M352.56,347.15c5.64-3.82,10.13-1.86,14.53,1.26,2.48,1.78,5.11,3.29,7.7,4.87,2,1.22,4,2.4,6.26.56.71-.58,1.14-.14,1.58.35a1.24,1.24,0,0,1,0,1.76c-4.61,6.42-7.13,8.88-13.52,4.57-3.12-2.12-6.24-4.27-9.38-6.34-5-3.28-7.08-3.13-11.75.7-.59.47-1.15.94-1.7,1.47-.78.77-1.25.11-1.83-.35-.91-.71-.38-1.27.1-1.9.78-1,1.6-2.09,2.31-3.19,4.09-6.46,2.84-13.67-3.12-18-4.38-3.19-12.32-.75-15.51,4.68-.92,1.55-.2,2.5.65,3.55q6.85,8.43,13.69,16.88c5,6.1,9.89,12.29,15,18.29,1.51,1.8,1.69,3.13,0,4.78a17.12,17.12,0,0,0-1.67,2c-1.48,2.07-2.59,1.79-4.13-.12-8.73-10.88-17.56-21.63-26.37-32.45-.53-.67-1.1-1.31-1.62-2-1.68-2.24-3.52-2.6-5.5-.48-.76.83-1.34,1.28-2.25.28s-.09-1.64.38-2.27c5-6.66,10.18-13.14,16.58-18.26a24.7,24.7,0,0,1,5.36-3.33c4.16-1.86,8.2-2.14,11.81,1.27a14.87,14.87,0,0,1,4.47,14.6c-.39,2-1.16,3.85-2.09,6.8"/><path class="cls-1" d="M419.22,259.8l7.29,8.48c6.11,7.1,12.08,14.36,18.38,21.24,2.67,2.93.21,4-1,5.56-1.86,2.44-2.62,0-3.43-1.1-8.42-10.74-16.83-21.46-25.07-32.34-2.14-2.81-4.36-4.9-7.79-5.1-2.27-.15-2.21-1.15-.95-3,2.64-3.83,5.35-5.44,10.12-4.26,14,3.43,28.24,6,42.38,9,.69.14,1.4.22,2.33.37-.27-1.49-1.25-2.15-2-3-7.58-8.8-15.06-17.72-22.84-26.33-2.66-2.94-.55-4.14.89-5.89,1.91-2.34,2.61.12,3.44,1.19q15,19.16,29.91,38.44c.67.89,2.46,1.61,1.32,3.21s-2.15,3.4-4.48,2.88c-5.19-1.14-10.42-2.18-15.63-3.26q-16.25-3.36-32.47-6.75c-.14.2-.29.41-.44.64"/><path class="cls-1" d="M338.21,391.14a20.73,20.73,0,0,0-1.19-6.87c-.32-1.11-.39-2,.74-2.54s1.26.72,1.79,1.27c.08.06.11.18.19.27,5.83,9.62,5.83,9.62-2,17.36-4.69,4.62-9.46,9.18-14,14-1.84,1.92-2.88,2-4.6-.2-8.49-10.64-17.14-21.15-25.75-31.7-2.9-3.57-2.95-3.62-6.75-1-.9.6-1.28.23-1.83-.26-.82-.77-.27-1.43.2-2,2.49-3.2,4.82-6.59,7.55-9.47,5.2-5.55,10.65-10.74,15.94-16.18,1.26-1.3,2.08-1.43,3.24,0,1.79,2.19,3.75,4.17,5.58,6.29.48.56,1.5,1,.59,2.16-.71.91-1.28.63-2.1.18-6.51-3.61-6.87-3.53-12.32,1.87-1.86,1.82-3.61,3.77-5.53,5.46-1.73,1.51-2.09,2.62-.36,4.55,3.28,3.67,6.41,7.56,9.41,11.54,1.45,1.92,2.36,1.75,3.81,0,2.9-3.41,6-6.62,9-9.91,1.12-1.23,2-2.64,3.69-.56,1.42,1.78,1.31,2.86-.41,4.32-3.39,2.93-6.57,6.19-9.95,9.19-1.48,1.34-1.86,2.27-.37,4,3.47,4,6.79,8.1,10,12.29,1.51,1.95,2.73,2.3,4.5.33,2.77-3.05,5.77-5.85,8.56-8.87a8,8,0,0,0,2.37-5.48"/><path class="cls-1" d="M478.45,259.88c-5.4-17.12-10.72-34-16-50.78-.69-2.19-.95-4.69-3.43-5.56a1.4,1.4,0,0,1-.69-1c-.25-2.17,5-6.47,6.82-5.49,15.49,8.52,31,17.13,46.48,25.64,1.89,1,1.91,2,.55,3.47l-.62.76c-3.36,4.12-3.37,4.14-7.85,1.65-4-2.23-8.06-4.34-12-6.73-1.76-1.07-2.88-.74-4.25.75-3.38,3.67-6.85,7.26-10.39,10.73-1.48,1.46-1.67,2.73-.9,4.71,1.79,4.56,3.33,9.22,5,13.83s1.64,4.8-2.71,8m-4.59-28.5c3.78-3.87,7.18-7.46,10.74-10.87,1.68-1.62.92-2.19-.52-3-2.56-1.35-5.1-2.8-7.61-4.2-3.49-1.93-7-3.89-11.19-6.21C468.3,215.65,471,223.26,473.86,231.38Z"/><path class="cls-1" d="M241.33,497.46c-5.1-16.24-10.05-32.23-15.19-48.17-1-3-.91-6.88-4.38-8.4a1.47,1.47,0,0,1-.49-1.11c.13-2.95,5.14-6.13,7.56-4.82q15.28,8.48,30.58,16.91c5,2.8,10,5.63,15,8.29,1.82.95,2.08,1.91.64,3.47a6.25,6.25,0,0,0-.4.5c-3.54,4.47-3.54,4.47-8.31,1.82-4-2.22-8.05-4.38-12-6.72-1.51-.9-2.51-.79-3.75.58-3.46,3.74-7,7.44-10.61,10.94-1.64,1.6-1.66,3-.88,5,1.73,4.43,3.25,9,4.86,13.51,1.68,4.72,1.68,4.72-2.68,8.18m-4.6-28.65c3.65-3.7,7-7.31,10.62-10.68,1.77-1.69,1.15-2.26-.5-3.17-5.38-2.89-10.68-5.94-16-8.9-.65-.36-1.28-1.22-2.31-.48C231.21,453.21,233.9,460.84,236.73,468.81Z"/><path class="cls-1" d="M386.29,274.17c.63.32,1.38.68,2.09,1.08q22.41,12.4,44.79,24.76c3.06,1.68,3.07,1.83.74,4.71-3.34,4.09-3.34,4.09-7.86,1.58-4-2.23-8-4.38-12-6.73-1.56-.9-2.64-1-4,.53-3.5,3.85-7.12,7.56-10.81,11.21a3.31,3.31,0,0,0-.81,4.13c1.89,5,3.46,10.13,5.47,15.05,1.05,2.54.54,4.08-1.22,5.84-2.07,2.06-2.23.23-2.7-1.27q-5.25-16.62-10.46-33.23-2.52-8-5-16c-.55-1.81-1-3.72-2.91-4.41a1.35,1.35,0,0,1-.93-1.21c-.06-1.19,4.39-6.12,5.59-6.05m21.83,22.08-20.45-11.37c3,8.47,5.71,16.1,8.32,23.52Z"/><path class="cls-1" d="M292.08,430.46c-4.92-13.37-9.77-26.78-14.87-40-1.14-3-.75-5,1.27-7.21s2.41-1.39,3.11.92c3.91,12.71,7.93,25.38,11.9,38.07,1.56,5,3.05,10,4.77,15a4.38,4.38,0,0,1-1.13,5.1c-1.46,1.51-2.6.6-3.87-.1q-20-11-39.89-22.07c-2.51-1.4-4.94-2.39-7.22.45-.69.86-1.18.47-1.79-.06-.83-.72-.51-1.28.08-1.91a3.88,3.88,0,0,0,.37-.56c6.28-9.33,6.28-9.33,15.6-4.17l31.17,17.19.69.13c-.08-.25-.14-.5-.19-.73"/><path class="cls-1" d="M240.78,518.62c-.08,3.92-1.38,7.63-2.81,11.3-.41,1-.76,1.79-2,1.12-1-.52-1.39-1-1-2.29,2.26-7.64.07-14-4.48-19.68q-14.81-18.29-29.58-36.57c-1.84-2.26-3.7-3.23-5.92-.63-.68.79-1.26,1-2,.16s-.4-1.36.11-2c2.23-2.85,4.46-5.67,6.65-8.54,1.16-1.51,2.15-1.32,3.26.06,10.83,13.64,22.31,26.64,32.68,40.74,3.4,4.67,5.63,9.94,5.14,16.36"/><path class="cls-1" d="M356.94,311.28a3.75,3.75,0,0,0-3.19,1.55c-.67.74-1.18,1.12-2,.25s-.31-1.59.23-2.3c2.16-2.75,4.32-5.49,6.45-8.28,1.27-1.67,2.28-1.37,3.47.15,2.66,3.39,5.44,6.72,8.16,10.06q11.35,13.94,22.72,27.89c2.3,2.81,2,3.5-1.81,7.5-2.22,2.35-3,.13-4-1.15-8.9-10.86-17.74-21.77-26.63-32.66-1-1.24-2-2.57-3.34-3"/><path class="cls-1" d="M292.08,430.46c.05.23.11.48.19.73l-.69-.13c.16-.2.32-.4.5-.6"/></svg>